<svg xmlns="http://www.w3.org/2000/svg" xmlns:xlink="http://www.w3.org/1999/xlink" width="320" zoomAndPan="magnify" viewBox="0 0 240 52.499999" height="70" preserveAspectRatio="xMidYMid meet" version="1.2"><defs/><g id="0300241c17"><g style="fill:#92ff8d;fill-opacity:1;"><g transform="translate(9.869744, 40.053003)"><path style="stroke:none" d="M 1.40625 9.210938 L 13.625 9.210938 C 14.058594 9.210938 14.449219 8.824219 14.449219 8.386719 L 14.449219 5.429688 C 14.449219 4.992188 14.835938 4.605469 15.273438 4.605469 L 18.230469 4.605469 C 18.664062 4.605469 19.054688 4.21875 19.054688 3.78125 L 19.054688 -22.253906 C 19.054688 -22.691406 18.664062 -23.078125 18.230469 -23.078125 L 6.011719 -23.078125 C 5.574219 -23.078125 5.1875 -22.691406 5.1875 -22.253906 L 5.1875 -19.296875 C 5.1875 -18.859375 4.800781 -18.472656 4.363281 -18.472656 L 1.40625 -18.472656 C 0.96875 -18.472656 0.582031 -18.082031 0.582031 -17.648438 L 0.582031 -5.429688 C 0.582031 -4.992188 0.96875 -4.605469 1.40625 -4.605469 L 4.363281 -4.605469 C 4.800781 -4.605469 5.1875 -4.21875 5.1875 -3.78125 L 5.1875 -0.824219 C 5.1875 -0.386719 5.574219 0 6.011719 0 L 13.625 0 C 14.058594 0 14.449219 0.386719 14.449219 0.824219 L 14.449219 3.78125 C 14.449219 4.21875 14.058594 4.605469 13.625 4.605469 L 1.40625 4.605469 C 0.96875 4.605469 0.582031 4.992188 0.582031 5.429688 L 0.582031 8.386719 C 0.582031 8.824219 0.96875 9.210938 1.40625 9.210938 Z M 5.1875 -5.429688 L 5.1875 -17.648438 C 5.1875 -18.082031 5.574219 -18.472656 6.011719 -18.472656 L 13.625 -18.472656 C 14.058594 -18.472656 14.449219 -18.082031 14.449219 -17.648438 L 14.449219 -5.429688 C 14.449219 -4.992188 14.058594 -4.605469 13.625 -4.605469 L 6.011719 -4.605469 C 5.574219 -4.605469 5.1875 -4.992188 5.1875 -5.429688 Z M 5.1875 -5.429688 "/></g></g><g style="fill:#92ff8d;fill-opacity:1;"><g transform="translate(32.413128, 40.053003)"><path style="stroke:none" d="M 6.011719 0 L 18.230469 0 C 18.664062 0 19.054688 -0.386719 19.054688 -0.824219 L 19.054688 -3.78125 C 19.054688 -4.21875 18.664062 -4.605469 18.230469 -4.605469 L 6.011719 -4.605469 C 5.574219 -4.605469 5.1875 -4.992188 5.1875 -5.429688 L 5.1875 -8.386719 C 5.1875 -8.824219 5.574219 -9.210938 6.011719 -9.210938 L 18.230469 -9.210938 C 18.664062 -9.210938 19.054688 -9.597656 19.054688 -10.035156 L 19.054688 -17.648438 C 19.054688 -18.082031 18.664062 -18.472656 18.230469 -18.472656 L 15.273438 -18.472656 C 14.835938 -18.472656 14.449219 -18.859375 14.449219 -19.296875 L 14.449219 -22.253906 C 14.449219 -22.691406 14.058594 -23.078125 13.625 -23.078125 L 6.011719 -23.078125 C 5.574219 -23.078125 5.1875 -22.691406 5.1875 -22.253906 L 5.1875 -19.296875 C 5.1875 -18.859375 4.800781 -18.472656 4.363281 -18.472656 L 1.40625 -18.472656 C 0.96875 -18.472656 0.582031 -18.082031 0.582031 -17.648438 L 0.582031 -5.429688 C 0.582031 -4.992188 0.96875 -4.605469 1.40625 -4.605469 L 4.363281 -4.605469 C 4.800781 -4.605469 5.1875 -4.21875 5.1875 -3.78125 L 5.1875 -0.824219 C 5.1875 -0.386719 5.574219 0 6.011719 0 Z M 5.1875 -14.691406 L 5.1875 -17.648438 C 5.1875 -18.082031 5.574219 -18.472656 6.011719 -18.472656 L 13.625 -18.472656 C 14.058594 -18.472656 14.449219 -18.082031 14.449219 -17.648438 L 14.449219 -14.691406 C 14.449219 -14.253906 14.058594 -13.867188 13.625 -13.867188 L 6.011719 -13.867188 C 5.574219 -13.867188 5.1875 -14.253906 5.1875 -14.691406 Z M 5.1875 -14.691406 "/></g></g><g style="fill:#92ff8d;fill-opacity:1;"><g transform="translate(54.956512, 40.053003)"><path style="stroke:none" d="M 6.011719 0 L 18.230469 0 C 18.664062 0 19.054688 -0.386719 19.054688 -0.824219 L 19.054688 -3.78125 C 19.054688 -4.21875 18.664062 -4.605469 18.230469 -4.605469 L 6.011719 -4.605469 C 5.574219 -4.605469 5.1875 -4.992188 5.1875 -5.429688 L 5.1875 -8.386719 C 5.1875 -8.824219 5.574219 -9.210938 6.011719 -9.210938 L 18.230469 -9.210938 C 18.664062 -9.210938 19.054688 -9.597656 19.054688 -10.035156 L 19.054688 -17.648438 C 19.054688 -18.082031 18.664062 -18.472656 18.230469 -18.472656 L 15.273438 -18.472656 C 14.835938 -18.472656 14.449219 -18.859375 14.449219 -19.296875 L 14.449219 -22.253906 C 14.449219 -22.691406 14.058594 -23.078125 13.625 -23.078125 L 6.011719 -23.078125 C 5.574219 -23.078125 5.1875 -22.691406 5.1875 -22.253906 L 5.1875 -19.296875 C 5.1875 -18.859375 4.800781 -18.472656 4.363281 -18.472656 L 1.40625 -18.472656 C 0.96875 -18.472656 0.582031 -18.082031 0.582031 -17.648438 L 0.582031 -5.429688 C 0.582031 -4.992188 0.96875 -4.605469 1.40625 -4.605469 L 4.363281 -4.605469 C 4.800781 -4.605469 5.1875 -4.21875 5.1875 -3.78125 L 5.1875 -0.824219 C 5.1875 -0.386719 5.574219 0 6.011719 0 Z M 5.1875 -14.691406 L 5.1875 -17.648438 C 5.1875 -18.082031 5.574219 -18.472656 6.011719 -18.472656 L 13.625 -18.472656 C 14.058594 -18.472656 14.449219 -18.082031 14.449219 -17.648438 L 14.449219 -14.691406 C 14.449219 -14.253906 14.058594 -13.867188 13.625 -13.867188 L 6.011719 -13.867188 C 5.574219 -13.867188 5.1875 -14.253906 5.1875 -14.691406 Z M 5.1875 -14.691406 "/></g></g><g style="fill:#92ff8d;fill-opacity:1;"><g transform="translate(77.499895, 40.053003)"><path style="stroke:none" d="M 1.40625 0 L 4.363281 0 C 4.800781 0 5.1875 -0.386719 5.1875 -0.824219 L 5.1875 -8.386719 C 5.1875 -8.824219 5.574219 -9.210938 6.011719 -9.210938 L 13.625 -9.210938 C 14.058594 -9.210938 14.449219 -8.824219 14.449219 -8.386719 L 14.449219 -0.824219 C 14.449219 -0.386719 14.835938 0 15.273438 0 L 18.230469 0 C 18.664062 0 19.054688 -0.386719 19.054688 -0.824219 L 19.054688 -8.386719 C 19.054688 -8.824219 18.664062 -9.210938 18.230469 -9.210938 L 15.273438 -9.210938 C 14.835938 -9.210938 14.449219 -9.597656 14.449219 -10.035156 L 14.449219 -13.042969 C 14.449219 -13.476562 14.835938 -13.867188 15.273438 -13.867188 L 18.230469 -13.867188 C 18.664062 -13.867188 19.054688 -14.253906 19.054688 -14.691406 L 19.054688 -22.253906 C 19.054688 -22.691406 18.664062 -23.078125 18.230469 -23.078125 L 15.273438 -23.078125 C 14.835938 -23.078125 14.449219 -22.691406 14.449219 -22.253906 L 14.449219 -14.691406 C 14.449219 -14.253906 14.058594 -13.867188 13.625 -13.867188 L 6.011719 -13.867188 C 5.574219 -13.867188 5.1875 -14.253906 5.1875 -14.691406 L 5.1875 -31.511719 C 5.1875 -31.949219 4.800781 -32.335938 4.363281 -32.335938 L 1.40625 -32.335938 C 0.96875 -32.335938 0.582031 -31.949219 0.582031 -31.511719 L 0.582031 -0.824219 C 0.582031 -0.386719 0.96875 0 1.40625 0 Z M 1.40625 0 "/></g></g><g style="fill:#09af00;fill-opacity:1;"><g transform="translate(7.726903, 37.910162)"><path style="stroke:none" d="M 1.40625 8.300781 L 13.625 8.300781 C 13.566406 8.300781 13.539062 8.332031 13.539062 8.386719 L 13.539062 5.429688 C 13.539062 4.960938 13.710938 4.554688 14.054688 4.210938 C 14.394531 3.867188 14.800781 3.695312 15.273438 3.695312 L 18.230469 3.695312 C 18.171875 3.695312 18.144531 3.726562 18.144531 3.78125 L 18.144531 -22.253906 C 18.144531 -22.195312 18.171875 -22.167969 18.230469 -22.167969 L 6.011719 -22.167969 C 6.070312 -22.167969 6.097656 -22.195312 6.097656 -22.253906 L 6.097656 -19.296875 C 6.097656 -18.828125 5.925781 -18.421875 5.582031 -18.078125 C 5.238281 -17.734375 4.832031 -17.5625 4.363281 -17.5625 L 1.40625 -17.5625 C 1.460938 -17.5625 1.492188 -17.589844 1.492188 -17.648438 L 1.492188 -5.429688 C 1.492188 -5.488281 1.460938 -5.515625 1.40625 -5.515625 L 4.363281 -5.515625 C 4.832031 -5.515625 5.238281 -5.34375 5.582031 -5 C 5.925781 -4.65625 6.097656 -4.25 6.097656 -3.78125 L 6.097656 -0.824219 C 6.097656 -0.878906 6.070312 -0.910156 6.011719 -0.910156 L 13.625 -0.910156 C 14.09375 -0.910156 14.5 -0.738281 14.84375 -0.394531 C 15.183594 -0.0507812 15.355469 0.355469 15.355469 0.824219 L 15.355469 3.78125 C 15.355469 4.25 15.183594 4.65625 14.84375 5 C 14.5 5.34375 14.09375 5.515625 13.625 5.515625 L 1.40625 5.515625 C 1.460938 5.515625 1.492188 5.488281 1.492188 5.429688 L 1.492188 8.386719 C 1.492188 8.332031 1.460938 8.300781 1.40625 8.300781 Z M 1.40625 10.121094 C 0.9375 10.121094 0.53125 9.949219 0.1875 9.605469 C -0.15625 9.261719 -0.328125 8.855469 -0.328125 8.386719 L -0.328125 5.429688 C -0.328125 4.960938 -0.15625 4.554688 0.1875 4.210938 C 0.53125 3.867188 0.9375 3.695312 1.40625 3.695312 L 13.625 3.695312 C 13.566406 3.695312 13.539062 3.726562 13.539062 3.78125 L 13.539062 0.824219 C 13.539062 0.878906 13.566406 0.910156 13.625 0.910156 L 6.011719 0.910156 C 5.542969 0.910156 5.136719 0.738281 4.792969 0.394531 C 4.449219 0.0507812 4.277344 -0.355469 4.277344 -0.824219 L 4.277344 -3.78125 C 4.277344 -3.726562 4.308594 -3.695312 4.363281 -3.695312 L 1.40625 -3.695312 C 0.9375 -3.695312 0.53125 -3.867188 0.1875 -4.210938 C -0.15625 -4.554688 -0.328125 -4.960938 -0.328125 -5.429688 L -0.328125 -17.648438 C -0.328125 -18.117188 -0.15625 -18.523438 0.1875 -18.867188 C 0.53125 -19.210938 0.9375 -19.378906 1.40625 -19.378906 L 4.363281 -19.378906 C 4.308594 -19.378906 4.277344 -19.351562 4.277344 -19.296875 L 4.277344 -22.253906 C 4.277344 -22.722656 4.449219 -23.128906 4.792969 -23.472656 C 5.136719 -23.816406 5.542969 -23.988281 6.011719 -23.988281 L 18.230469 -23.988281 C 18.699219 -23.988281 19.105469 -23.816406 19.449219 -23.472656 C 19.789062 -23.128906 19.960938 -22.722656 19.960938 -22.253906 L 19.960938 3.78125 C 19.960938 4.25 19.789062 4.65625 19.449219 5 C 19.105469 5.34375 18.699219 5.515625 18.230469 5.515625 L 15.273438 5.515625 C 15.328125 5.515625 15.355469 5.488281 15.355469 5.429688 L 15.355469 8.386719 C 15.355469 8.855469 15.183594 9.261719 14.84375 9.605469 C 14.5 9.949219 14.09375 10.121094 13.625 10.121094 Z M 4.277344 -5.429688 L 4.277344 -17.648438 C 4.277344 -18.117188 4.449219 -18.523438 4.792969 -18.867188 C 5.136719 -19.210938 5.542969 -19.378906 6.011719 -19.378906 L 13.625 -19.378906 C 14.09375 -19.378906 14.5 -19.210938 14.84375 -18.867188 C 15.183594 -18.523438 15.355469 -18.117188 15.355469 -17.648438 L 15.355469 -5.429688 C 15.355469 -4.960938 15.183594 -4.554688 14.84375 -4.210938 C 14.5 -3.867188 14.09375 -3.695312 13.625 -3.695312 L 6.011719 -3.695312 C 5.542969 -3.695312 5.136719 -3.867188 4.792969 -4.210938 C 4.449219 -4.554688 4.277344 -4.960938 4.277344 -5.429688 Z M 6.097656 -5.429688 C 6.097656 -5.488281 6.070312 -5.515625 6.011719 -5.515625 L 13.625 -5.515625 C 13.566406 -5.515625 13.539062 -5.488281 13.539062 -5.429688 L 13.539062 -17.648438 C 13.539062 -17.589844 13.566406 -17.5625 13.625 -17.5625 L 6.011719 -17.5625 C 6.070312 -17.5625 6.097656 -17.589844 6.097656 -17.648438 Z M 6.097656 -5.429688 "/></g></g><g style="fill:#09af00;fill-opacity:1;"><g transform="translate(30.270287, 37.910162)"><path style="stroke:none" d="M 6.011719 -0.910156 L 18.230469 -0.910156 C 18.171875 -0.910156 18.144531 -0.878906 18.144531 -0.824219 L 18.144531 -3.78125 C 18.144531 -3.726562 18.171875 -3.695312 18.230469 -3.695312 L 6.011719 -3.695312 C 5.542969 -3.695312 5.136719 -3.867188 4.792969 -4.210938 C 4.449219 -4.554688 4.277344 -4.960938 4.277344 -5.429688 L 4.277344 -8.386719 C 4.277344 -8.855469 4.449219 -9.261719 4.792969 -9.605469 C 5.136719 -9.949219 5.542969 -10.121094 6.011719 -10.121094 L 18.230469 -10.121094 C 18.171875 -10.121094 18.144531 -10.09375 18.144531 -10.035156 L 18.144531 -17.648438 C 18.144531 -17.589844 18.171875 -17.5625 18.230469 -17.5625 L 15.273438 -17.5625 C 14.800781 -17.5625 14.394531 -17.734375 14.054688 -18.078125 C 13.710938 -18.421875 13.539062 -18.828125 13.539062 -19.296875 L 13.539062 -22.253906 C 13.539062 -22.195312 13.566406 -22.167969 13.625 -22.167969 L 6.011719 -22.167969 C 6.070312 -22.167969 6.097656 -22.195312 6.097656 -22.253906 L 6.097656 -19.296875 C 6.097656 -18.828125 5.925781 -18.421875 5.582031 -18.078125 C 5.238281 -17.734375 4.832031 -17.5625 4.363281 -17.5625 L 1.40625 -17.5625 C 1.460938 -17.5625 1.492188 -17.589844 1.492188 -17.648438 L 1.492188 -5.429688 C 1.492188 -5.488281 1.460938 -5.515625 1.40625 -5.515625 L 4.363281 -5.515625 C 4.832031 -5.515625 5.238281 -5.34375 5.582031 -5 C 5.925781 -4.65625 6.097656 -4.25 6.097656 -3.78125 L 6.097656 -0.824219 C 6.097656 -0.878906 6.070312 -0.910156 6.011719 -0.910156 Z M 6.011719 0.910156 C 5.542969 0.910156 5.136719 0.738281 4.792969 0.394531 C 4.449219 0.0507812 4.277344 -0.355469 4.277344 -0.824219 L 4.277344 -3.78125 C 4.277344 -3.726562 4.308594 -3.695312 4.363281 -3.695312 L 1.40625 -3.695312 C 0.9375 -3.695312 0.53125 -3.867188 0.1875 -4.210938 C -0.15625 -4.554688 -0.328125 -4.960938 -0.328125 -5.429688 L -0.328125 -17.648438 C -0.328125 -18.117188 -0.15625 -18.523438 0.1875 -18.867188 C 0.53125 -19.210938 0.9375 -19.378906 1.40625 -19.378906 L 4.363281 -19.378906 C 4.308594 -19.378906 4.277344 -19.351562 4.277344 -19.296875 L 4.277344 -22.253906 C 4.277344 -22.722656 4.449219 -23.128906 4.792969 -23.472656 C 5.136719 -23.816406 5.542969 -23.988281 6.011719 -23.988281 L 13.625 -23.988281 C 14.09375 -23.988281 14.5 -23.816406 14.84375 -23.472656 C 15.183594 -23.128906 15.355469 -22.722656 15.355469 -22.253906 L 15.355469 -19.296875 C 15.355469 -19.351562 15.328125 -19.378906 15.273438 -19.378906 L 18.230469 -19.378906 C 18.699219 -19.378906 19.105469 -19.210938 19.449219 -18.867188 C 19.789062 -18.523438 19.960938 -18.117188 19.960938 -17.648438 L 19.960938 -10.035156 C 19.960938 -9.566406 19.789062 -9.160156 19.449219 -8.816406 C 19.105469 -8.472656 18.699219 -8.300781 18.230469 -8.300781 L 6.011719 -8.300781 C 6.070312 -8.300781 6.097656 -8.332031 6.097656 -8.386719 L 6.097656 -5.429688 C 6.097656 -5.488281 6.070312 -5.515625 6.011719 -5.515625 L 18.230469 -5.515625 C 18.699219 -5.515625 19.105469 -5.34375 19.449219 -5 C 19.789062 -4.65625 19.960938 -4.25 19.960938 -3.78125 L 19.960938 -0.824219 C 19.960938 -0.355469 19.789062 0.0507812 19.449219 0.394531 C 19.105469 0.738281 18.699219 0.910156 18.230469 0.910156 Z M 4.277344 -14.691406 L 4.277344 -17.648438 C 4.277344 -18.117188 4.449219 -18.523438 4.792969 -18.867188 C 5.136719 -19.210938 5.542969 -19.378906 6.011719 -19.378906 L 13.625 -19.378906 C 14.09375 -19.378906 14.5 -19.210938 14.84375 -18.867188 C 15.183594 -18.523438 15.355469 -18.117188 15.355469 -17.648438 L 15.355469 -14.691406 C 15.355469 -14.222656 15.183594 -13.816406 14.84375 -13.472656 C 14.5 -13.128906 14.09375 -12.957031 13.625 -12.957031 L 6.011719 -12.957031 C 5.542969 -12.957031 5.136719 -13.128906 4.792969 -13.472656 C 4.449219 -13.816406 4.277344 -14.222656 4.277344 -14.691406 Z M 6.097656 -14.691406 C 6.097656 -14.746094 6.070312 -14.773438 6.011719 -14.773438 L 13.625 -14.773438 C 13.566406 -14.773438 13.539062 -14.746094 13.539062 -14.691406 L 13.539062 -17.648438 C 13.539062 -17.589844 13.566406 -17.5625 13.625 -17.5625 L 6.011719 -17.5625 C 6.070312 -17.5625 6.097656 -17.589844 6.097656 -17.648438 Z M 6.097656 -14.691406 "/></g></g><g style="fill:#09af00;fill-opacity:1;"><g transform="translate(52.81367, 37.910162)"><path style="stroke:none" d="M 6.011719 -0.910156 L 18.230469 -0.910156 C 18.171875 -0.910156 18.144531 -0.878906 18.144531 -0.824219 L 18.144531 -3.78125 C 18.144531 -3.726562 18.171875 -3.695312 18.230469 -3.695312 L 6.011719 -3.695312 C 5.542969 -3.695312 5.136719 -3.867188 4.792969 -4.210938 C 4.449219 -4.554688 4.277344 -4.960938 4.277344 -5.429688 L 4.277344 -8.386719 C 4.277344 -8.855469 4.449219 -9.261719 4.792969 -9.605469 C 5.136719 -9.949219 5.542969 -10.121094 6.011719 -10.121094 L 18.230469 -10.121094 C 18.171875 -10.121094 18.144531 -10.09375 18.144531 -10.035156 L 18.144531 -17.648438 C 18.144531 -17.589844 18.171875 -17.5625 18.230469 -17.5625 L 15.273438 -17.5625 C 14.800781 -17.5625 14.394531 -17.734375 14.054688 -18.078125 C 13.710938 -18.421875 13.539062 -18.828125 13.539062 -19.296875 L 13.539062 -22.253906 C 13.539062 -22.195312 13.566406 -22.167969 13.625 -22.167969 L 6.011719 -22.167969 C 6.070312 -22.167969 6.097656 -22.195312 6.097656 -22.253906 L 6.097656 -19.296875 C 6.097656 -18.828125 5.925781 -18.421875 5.582031 -18.078125 C 5.238281 -17.734375 4.832031 -17.5625 4.363281 -17.5625 L 1.40625 -17.5625 C 1.460938 -17.5625 1.492188 -17.589844 1.492188 -17.648438 L 1.492188 -5.429688 C 1.492188 -5.488281 1.460938 -5.515625 1.40625 -5.515625 L 4.363281 -5.515625 C 4.832031 -5.515625 5.238281 -5.34375 5.582031 -5 C 5.925781 -4.65625 6.097656 -4.25 6.097656 -3.78125 L 6.097656 -0.824219 C 6.097656 -0.878906 6.070312 -0.910156 6.011719 -0.910156 Z M 6.011719 0.910156 C 5.542969 0.910156 5.136719 0.738281 4.792969 0.394531 C 4.449219 0.0507812 4.277344 -0.355469 4.277344 -0.824219 L 4.277344 -3.78125 C 4.277344 -3.726562 4.308594 -3.695312 4.363281 -3.695312 L 1.40625 -3.695312 C 0.9375 -3.695312 0.53125 -3.867188 0.1875 -4.210938 C -0.15625 -4.554688 -0.328125 -4.960938 -0.328125 -5.429688 L -0.328125 -17.648438 C -0.328125 -18.117188 -0.15625 -18.523438 0.1875 -18.867188 C 0.53125 -19.210938 0.9375 -19.378906 1.40625 -19.378906 L 4.363281 -19.378906 C 4.308594 -19.378906 4.277344 -19.351562 4.277344 -19.296875 L 4.277344 -22.253906 C 4.277344 -22.722656 4.449219 -23.128906 4.792969 -23.472656 C 5.136719 -23.816406 5.542969 -23.988281 6.011719 -23.988281 L 13.625 -23.988281 C 14.09375 -23.988281 14.5 -23.816406 14.84375 -23.472656 C 15.183594 -23.128906 15.355469 -22.722656 15.355469 -22.253906 L 15.355469 -19.296875 C 15.355469 -19.351562 15.328125 -19.378906 15.273438 -19.378906 L 18.230469 -19.378906 C 18.699219 -19.378906 19.105469 -19.210938 19.449219 -18.867188 C 19.789062 -18.523438 19.960938 -18.117188 19.960938 -17.648438 L 19.960938 -10.035156 C 19.960938 -9.566406 19.789062 -9.160156 19.449219 -8.816406 C 19.105469 -8.472656 18.699219 -8.300781 18.230469 -8.300781 L 6.011719 -8.300781 C 6.070312 -8.300781 6.097656 -8.332031 6.097656 -8.386719 L 6.097656 -5.429688 C 6.097656 -5.488281 6.070312 -5.515625 6.011719 -5.515625 L 18.230469 -5.515625 C 18.699219 -5.515625 19.105469 -5.34375 19.449219 -5 C 19.789062 -4.65625 19.960938 -4.25 19.960938 -3.78125 L 19.960938 -0.824219 C 19.960938 -0.355469 19.789062 0.0507812 19.449219 0.394531 C 19.105469 0.738281 18.699219 0.910156 18.230469 0.910156 Z M 4.277344 -14.691406 L 4.277344 -17.648438 C 4.277344 -18.117188 4.449219 -18.523438 4.792969 -18.867188 C 5.136719 -19.210938 5.542969 -19.378906 6.011719 -19.378906 L 13.625 -19.378906 C 14.09375 -19.378906 14.5 -19.210938 14.84375 -18.867188 C 15.183594 -18.523438 15.355469 -18.117188 15.355469 -17.648438 L 15.355469 -14.691406 C 15.355469 -14.222656 15.183594 -13.816406 14.84375 -13.472656 C 14.5 -13.128906 14.09375 -12.957031 13.625 -12.957031 L 6.011719 -12.957031 C 5.542969 -12.957031 5.136719 -13.128906 4.792969 -13.472656 C 4.449219 -13.816406 4.277344 -14.222656 4.277344 -14.691406 Z M 6.097656 -14.691406 C 6.097656 -14.746094 6.070312 -14.773438 6.011719 -14.773438 L 13.625 -14.773438 C 13.566406 -14.773438 13.539062 -14.746094 13.539062 -14.691406 L 13.539062 -17.648438 C 13.539062 -17.589844 13.566406 -17.5625 13.625 -17.5625 L 6.011719 -17.5625 C 6.070312 -17.5625 6.097656 -17.589844 6.097656 -17.648438 Z M 6.097656 -14.691406 "/></g></g><g style="fill:#09af00;fill-opacity:1;"><g transform="translate(75.357054, 37.910162)"><path style="stroke:none" d="M 1.40625 -0.910156 L 4.363281 -0.910156 C 4.308594 -0.910156 4.277344 -0.878906 4.277344 -0.824219 L 4.277344 -8.386719 C 4.277344 -8.855469 4.449219 -9.261719 4.792969 -9.605469 C 5.136719 -9.949219 5.542969 -10.121094 6.011719 -10.121094 L 13.625 -10.121094 C 14.09375 -10.121094 14.5 -9.949219 14.84375 -9.605469 C 15.183594 -9.261719 15.355469 -8.855469 15.355469 -8.386719 L 15.355469 -0.824219 C 15.355469 -0.878906 15.328125 -0.910156 15.273438 -0.910156 L 18.230469 -0.910156 C 18.171875 -0.910156 18.144531 -0.878906 18.144531 -0.824219 L 18.144531 -8.386719 C 18.144531 -8.332031 18.171875 -8.300781 18.230469 -8.300781 L 15.273438 -8.300781 C 14.800781 -8.300781 14.394531 -8.472656 14.054688 -8.816406 C 13.710938 -9.160156 13.539062 -9.566406 13.539062 -10.035156 L 13.539062 -13.042969 C 13.539062 -13.511719 13.710938 -13.917969 14.054688 -14.261719 C 14.394531 -14.601562 14.800781 -14.773438 15.273438 -14.773438 L 18.230469 -14.773438 C 18.171875 -14.773438 18.144531 -14.746094 18.144531 -14.691406 L 18.144531 -22.253906 C 18.144531 -22.195312 18.171875 -22.167969 18.230469 -22.167969 L 15.273438 -22.167969 C 15.328125 -22.167969 15.355469 -22.195312 15.355469 -22.253906 L 15.355469 -14.691406 C 15.355469 -14.222656 15.183594 -13.816406 14.84375 -13.472656 C 14.5 -13.128906 14.09375 -12.957031 13.625 -12.957031 L 6.011719 -12.957031 C 5.542969 -12.957031 5.136719 -13.128906 4.792969 -13.472656 C 4.449219 -13.816406 4.277344 -14.222656 4.277344 -14.691406 L 4.277344 -31.511719 C 4.277344 -31.457031 4.308594 -31.429688 4.363281 -31.429688 L 1.40625 -31.429688 C 1.460938 -31.429688 1.492188 -31.457031 1.492188 -31.511719 L 1.492188 -0.824219 C 1.492188 -0.878906 1.460938 -0.910156 1.40625 -0.910156 Z M 1.40625 0.910156 C 0.9375 0.910156 0.53125 0.738281 0.1875 0.394531 C -0.15625 0.0507812 -0.328125 -0.355469 -0.328125 -0.824219 L -0.328125 -31.511719 C -0.328125 -31.984375 -0.15625 -32.390625 0.1875 -32.730469 C 0.53125 -33.074219 0.9375 -33.246094 1.40625 -33.246094 L 4.363281 -33.246094 C 4.832031 -33.246094 5.238281 -33.074219 5.582031 -32.730469 C 5.925781 -32.390625 6.097656 -31.984375 6.097656 -31.511719 L 6.097656 -14.691406 C 6.097656 -14.746094 6.070312 -14.773438 6.011719 -14.773438 L 13.625 -14.773438 C 13.566406 -14.773438 13.539062 -14.746094 13.539062 -14.691406 L 13.539062 -22.253906 C 13.539062 -22.722656 13.710938 -23.128906 14.054688 -23.472656 C 14.394531 -23.816406 14.800781 -23.988281 15.273438 -23.988281 L 18.230469 -23.988281 C 18.699219 -23.988281 19.105469 -23.816406 19.449219 -23.472656 C 19.789062 -23.128906 19.960938 -22.722656 19.960938 -22.253906 L 19.960938 -14.691406 C 19.960938 -14.222656 19.789062 -13.816406 19.449219 -13.472656 C 19.105469 -13.128906 18.699219 -12.957031 18.230469 -12.957031 L 15.273438 -12.957031 C 15.328125 -12.957031 15.355469 -12.984375 15.355469 -13.042969 L 15.355469 -10.035156 C 15.355469 -10.09375 15.328125 -10.121094 15.273438 -10.121094 L 18.230469 -10.121094 C 18.699219 -10.121094 19.105469 -9.949219 19.449219 -9.605469 C 19.789062 -9.261719 19.960938 -8.855469 19.960938 -8.386719 L 19.960938 -0.824219 C 19.960938 -0.355469 19.789062 0.0507812 19.449219 0.394531 C 19.105469 0.738281 18.699219 0.910156 18.230469 0.910156 L 15.273438 0.910156 C 14.800781 0.910156 14.394531 0.738281 14.054688 0.394531 C 13.710938 0.0507812 13.539062 -0.355469 13.539062 -0.824219 L 13.539062 -8.386719 C 13.539062 -8.332031 13.566406 -8.300781 13.625 -8.300781 L 6.011719 -8.300781 C 6.070312 -8.300781 6.097656 -8.332031 6.097656 -8.386719 L 6.097656 -0.824219 C 6.097656 -0.355469 5.925781 0.0507812 5.582031 0.394531 C 5.238281 0.738281 4.832031 0.910156 4.363281 0.910156 Z M 1.40625 0.910156 "/></g></g><g style="fill:#737373;fill-opacity:1;"><g transform="translate(104.279706, 39.006739)"><path style="stroke:none" d="M 6.257812 0 L 18.976562 0 C 19.429688 0 19.832031 -0.402344 19.832031 -0.859375 L 19.832031 -3.9375 C 19.832031 -4.390625 19.429688 -4.792969 18.976562 -4.792969 L 6.257812 -4.792969 C 5.804688 -4.792969 5.398438 -5.199219 5.398438 -5.652344 L 5.398438 -18.371094 C 5.398438 -18.824219 5.804688 -19.226562 6.257812 -19.226562 L 18.976562 -19.226562 C 19.429688 -19.226562 19.832031 -19.632812 19.832031 -20.085938 L 19.832031 -23.164062 C 19.832031 -23.617188 19.429688 -24.023438 18.976562 -24.023438 L 6.257812 -24.023438 C 5.804688 -24.023438 5.398438 -23.617188 5.398438 -23.164062 L 5.398438 -20.085938 C 5.398438 -19.632812 4.996094 -19.226562 4.542969 -19.226562 L 1.464844 -19.226562 C 1.007812 -19.226562 0.605469 -18.824219 0.605469 -18.371094 L 0.605469 -5.652344 C 0.605469 -5.199219 1.007812 -4.792969 1.464844 -4.792969 L 4.542969 -4.792969 C 4.996094 -4.792969 5.398438 -4.390625 5.398438 -3.9375 L 5.398438 -0.859375 C 5.398438 -0.402344 5.804688 0 6.257812 0 Z M 6.257812 0 "/></g></g><g style="fill:#737373;fill-opacity:1;"><g transform="translate(127.744425, 39.006739)"><path style="stroke:none" d="M 1.464844 0 L 4.542969 0 C 4.996094 0 5.398438 -0.402344 5.398438 -0.859375 L 5.398438 -23.164062 C 5.398438 -23.617188 4.996094 -24.023438 4.542969 -24.023438 L 1.464844 -24.023438 C 1.007812 -24.023438 0.605469 -23.617188 0.605469 -23.164062 L 0.605469 -0.859375 C 0.605469 -0.402344 1.007812 0 1.464844 0 Z M 1.464844 -28.816406 L 4.542969 -28.816406 C 4.996094 -28.816406 5.398438 -29.21875 5.398438 -29.675781 L 5.398438 -32.804688 C 5.398438 -33.257812 4.996094 -33.660156 4.542969 -33.660156 L 1.464844 -33.660156 C 1.007812 -33.660156 0.605469 -33.257812 0.605469 -32.804688 L 0.605469 -29.675781 C 0.605469 -29.21875 1.007812 -28.816406 1.464844 -28.816406 Z M 1.464844 -28.816406 "/></g></g><g style="fill:#737373;fill-opacity:1;"><g transform="translate(136.777347, 39.006739)"><path style="stroke:none" d="M 1.464844 0 L 4.542969 0 C 4.996094 0 5.398438 -0.402344 5.398438 -0.859375 L 5.398438 -18.371094 C 5.398438 -18.824219 5.804688 -19.226562 6.257812 -19.226562 L 14.179688 -19.226562 C 14.636719 -19.226562 15.039062 -19.632812 15.039062 -20.085938 L 15.039062 -23.164062 C 15.039062 -23.617188 14.636719 -24.023438 14.179688 -24.023438 L 6.257812 -24.023438 C 5.804688 -24.023438 5.398438 -23.617188 5.398438 -23.164062 L 5.398438 -20.085938 C 5.398438 -19.632812 4.996094 -19.226562 4.542969 -19.226562 L 1.464844 -19.226562 C 1.007812 -19.226562 0.605469 -18.824219 0.605469 -18.371094 L 0.605469 -0.859375 C 0.605469 -0.402344 1.007812 0 1.464844 0 Z M 1.464844 0 "/></g></g><g style="fill:#737373;fill-opacity:1;"><g transform="translate(155.448289, 39.006739)"><path style="stroke:none" d="M 6.257812 0 L 18.976562 0 C 19.429688 0 19.832031 -0.402344 19.832031 -0.859375 L 19.832031 -3.9375 C 19.832031 -4.390625 19.429688 -4.792969 18.976562 -4.792969 L 6.257812 -4.792969 C 5.804688 -4.792969 5.398438 -5.199219 5.398438 -5.652344 L 5.398438 -18.371094 C 5.398438 -18.824219 5.804688 -19.226562 6.257812 -19.226562 L 18.976562 -19.226562 C 19.429688 -19.226562 19.832031 -19.632812 19.832031 -20.085938 L 19.832031 -23.164062 C 19.832031 -23.617188 19.429688 -24.023438 18.976562 -24.023438 L 6.257812 -24.023438 C 5.804688 -24.023438 5.398438 -23.617188 5.398438 -23.164062 L 5.398438 -20.085938 C 5.398438 -19.632812 4.996094 -19.226562 4.542969 -19.226562 L 1.464844 -19.226562 C 1.007812 -19.226562 0.605469 -18.824219 0.605469 -18.371094 L 0.605469 -5.652344 C 0.605469 -5.199219 1.007812 -4.792969 1.464844 -4.792969 L 4.542969 -4.792969 C 4.996094 -4.792969 5.398438 -4.390625 5.398438 -3.9375 L 5.398438 -0.859375 C 5.398438 -0.402344 5.804688 0 6.257812 0 Z M 6.257812 0 "/></g></g><g style="fill:#737373;fill-opacity:1;"><g transform="translate(178.913008, 39.006739)"><path style="stroke:none" d="M 6.257812 0 L 18.976562 0 C 19.429688 0 19.832031 -0.402344 19.832031 -0.859375 L 19.832031 -23.164062 C 19.832031 -23.617188 19.429688 -24.023438 18.976562 -24.023438 L 15.898438 -24.023438 C 15.441406 -24.023438 15.039062 -23.617188 15.039062 -23.164062 L 15.039062 -5.652344 C 15.039062 -5.199219 14.636719 -4.792969 14.179688 -4.792969 L 6.257812 -4.792969 C 5.804688 -4.792969 5.398438 -5.199219 5.398438 -5.652344 L 5.398438 -23.164062 C 5.398438 -23.617188 4.996094 -24.023438 4.542969 -24.023438 L 1.464844 -24.023438 C 1.007812 -24.023438 0.605469 -23.617188 0.605469 -23.164062 L 0.605469 -5.652344 C 0.605469 -5.199219 1.007812 -4.792969 1.464844 -4.792969 L 4.542969 -4.792969 C 4.996094 -4.792969 5.398438 -4.390625 5.398438 -3.9375 L 5.398438 -0.859375 C 5.398438 -0.402344 5.804688 0 6.257812 0 Z M 6.257812 0 "/></g></g><g style="fill:#737373;fill-opacity:1;"><g transform="translate(202.377727, 39.006739)"><path style="stroke:none" d="M 1.464844 0 L 4.542969 0 C 4.996094 0 5.398438 -0.402344 5.398438 -0.859375 L 5.398438 -23.164062 C 5.398438 -23.617188 4.996094 -24.023438 4.542969 -24.023438 L 1.464844 -24.023438 C 1.007812 -24.023438 0.605469 -23.617188 0.605469 -23.164062 L 0.605469 -0.859375 C 0.605469 -0.402344 1.007812 0 1.464844 0 Z M 1.464844 -28.816406 L 4.542969 -28.816406 C 4.996094 -28.816406 5.398438 -29.21875 5.398438 -29.675781 L 5.398438 -32.804688 C 5.398438 -33.257812 4.996094 -33.660156 4.542969 -33.660156 L 1.464844 -33.660156 C 1.007812 -33.660156 0.605469 -33.257812 0.605469 -32.804688 L 0.605469 -29.675781 C 0.605469 -29.21875 1.007812 -28.816406 1.464844 -28.816406 Z M 1.464844 -28.816406 "/></g></g><g style="fill:#737373;fill-opacity:1;"><g transform="translate(211.410649, 39.006739)"><path style="stroke:none" d="M 11.050781 0 L 18.976562 0 C 19.429688 0 19.832031 -0.402344 19.832031 -0.859375 L 19.832031 -3.9375 C 19.832031 -4.390625 19.429688 -4.792969 18.976562 -4.792969 L 11.050781 -4.792969 C 10.597656 -4.792969 10.195312 -5.199219 10.195312 -5.652344 L 10.195312 -18.371094 C 10.195312 -18.824219 10.597656 -19.226562 11.050781 -19.226562 L 18.976562 -19.226562 C 19.429688 -19.226562 19.832031 -19.632812 19.832031 -20.085938 L 19.832031 -23.164062 C 19.832031 -23.617188 19.429688 -24.023438 18.976562 -24.023438 L 11.050781 -24.023438 C 10.597656 -24.023438 10.195312 -24.425781 10.195312 -24.878906 L 10.195312 -32.804688 C 10.195312 -33.257812 9.789062 -33.660156 9.335938 -33.660156 L 6.257812 -33.660156 C 5.804688 -33.660156 5.398438 -33.257812 5.398438 -32.804688 L 5.398438 -24.878906 C 5.398438 -24.425781 4.996094 -24.023438 4.542969 -24.023438 L 1.464844 -24.023438 C 1.007812 -24.023438 0.605469 -23.617188 0.605469 -23.164062 L 0.605469 -20.085938 C 0.605469 -19.632812 1.007812 -19.226562 1.464844 -19.226562 L 4.542969 -19.226562 C 4.996094 -19.226562 5.398438 -18.824219 5.398438 -18.371094 L 5.398438 -5.652344 C 5.398438 -5.199219 5.804688 -4.792969 6.257812 -4.792969 L 9.335938 -4.792969 C 9.789062 -4.792969 10.195312 -4.390625 10.195312 -3.9375 L 10.195312 -0.859375 C 10.195312 -0.402344 10.597656 0 11.050781 0 Z M 11.050781 0 "/></g></g><g style="fill:#ffffff;fill-opacity:1;"><g transform="translate(102.049306, 36.776342)"><path style="stroke:none" d="M 6.257812 -0.945312 L 18.976562 -0.945312 C 18.917969 -0.945312 18.886719 -0.917969 18.886719 -0.859375 L 18.886719 -3.9375 C 18.886719 -3.878906 18.917969 -3.847656 18.976562 -3.847656 L 6.257812 -3.847656 C 5.769531 -3.847656 5.347656 -4.027344 4.988281 -4.382812 C 4.632812 -4.742188 4.453125 -5.164062 4.453125 -5.652344 L 4.453125 -18.371094 C 4.453125 -18.859375 4.632812 -19.28125 4.988281 -19.636719 C 5.347656 -19.996094 5.769531 -20.175781 6.257812 -20.175781 L 18.976562 -20.175781 C 18.917969 -20.175781 18.886719 -20.144531 18.886719 -20.085938 L 18.886719 -23.164062 C 18.886719 -23.105469 18.917969 -23.074219 18.976562 -23.074219 L 6.257812 -23.074219 C 6.316406 -23.074219 6.347656 -23.105469 6.347656 -23.164062 L 6.347656 -20.085938 C 6.347656 -19.597656 6.167969 -19.175781 5.808594 -18.816406 C 5.453125 -18.460938 5.03125 -18.28125 4.542969 -18.28125 L 1.464844 -18.28125 C 1.523438 -18.28125 1.550781 -18.3125 1.550781 -18.371094 L 1.550781 -5.652344 C 1.550781 -5.710938 1.523438 -5.742188 1.464844 -5.742188 L 4.542969 -5.742188 C 5.03125 -5.742188 5.453125 -5.5625 5.808594 -5.203125 C 6.167969 -4.847656 6.347656 -4.425781 6.347656 -3.9375 L 6.347656 -0.859375 C 6.347656 -0.917969 6.316406 -0.945312 6.257812 -0.945312 Z M 6.257812 0.945312 C 5.769531 0.945312 5.347656 0.769531 4.988281 0.410156 C 4.632812 0.0546875 4.453125 -0.371094 4.453125 -0.859375 L 4.453125 -3.9375 C 4.453125 -3.878906 4.484375 -3.847656 4.542969 -3.847656 L 1.464844 -3.847656 C 0.976562 -3.847656 0.550781 -4.027344 0.195312 -4.382812 C -0.160156 -4.742188 -0.339844 -5.164062 -0.339844 -5.652344 L -0.339844 -18.371094 C -0.339844 -18.859375 -0.160156 -19.28125 0.195312 -19.636719 C 0.550781 -19.996094 0.976562 -20.175781 1.464844 -20.175781 L 4.542969 -20.175781 C 4.484375 -20.175781 4.453125 -20.144531 4.453125 -20.085938 L 4.453125 -23.164062 C 4.453125 -23.652344 4.632812 -24.074219 4.988281 -24.433594 C 5.347656 -24.789062 5.769531 -24.96875 6.257812 -24.96875 L 18.976562 -24.96875 C 19.464844 -24.96875 19.886719 -24.789062 20.242188 -24.433594 C 20.601562 -24.074219 20.78125 -23.652344 20.78125 -23.164062 L 20.78125 -20.085938 C 20.78125 -19.597656 20.601562 -19.175781 20.242188 -18.816406 C 19.886719 -18.460938 19.464844 -18.28125 18.976562 -18.28125 L 6.257812 -18.28125 C 6.316406 -18.28125 6.347656 -18.3125 6.347656 -18.371094 L 6.347656 -5.652344 C 6.347656 -5.710938 6.316406 -5.742188 6.257812 -5.742188 L 18.976562 -5.742188 C 19.464844 -5.742188 19.886719 -5.5625 20.242188 -5.203125 C 20.601562 -4.847656 20.78125 -4.425781 20.78125 -3.9375 L 20.78125 -0.859375 C 20.78125 -0.371094 20.601562 0.0546875 20.242188 0.410156 C 19.886719 0.769531 19.464844 0.945312 18.976562 0.945312 Z M 6.257812 0.945312 "/></g></g><g style="fill:#ffffff;fill-opacity:1;"><g transform="translate(125.514026, 36.776342)"><path style="stroke:none" d="M 1.464844 -0.945312 L 4.542969 -0.945312 C 4.484375 -0.945312 4.453125 -0.917969 4.453125 -0.859375 L 4.453125 -23.164062 C 4.453125 -23.105469 4.484375 -23.074219 4.542969 -23.074219 L 1.464844 -23.074219 C 1.523438 -23.074219 1.550781 -23.105469 1.550781 -23.164062 L 1.550781 -0.859375 C 1.550781 -0.917969 1.523438 -0.945312 1.464844 -0.945312 Z M 1.464844 0.945312 C 0.976562 0.945312 0.550781 0.769531 0.195312 0.410156 C -0.160156 0.0546875 -0.339844 -0.371094 -0.339844 -0.859375 L -0.339844 -23.164062 C -0.339844 -23.652344 -0.160156 -24.074219 0.195312 -24.433594 C 0.550781 -24.789062 0.976562 -24.96875 1.464844 -24.96875 L 4.542969 -24.96875 C 5.03125 -24.96875 5.453125 -24.789062 5.808594 -24.433594 C 6.167969 -24.074219 6.347656 -23.652344 6.347656 -23.164062 L 6.347656 -0.859375 C 6.347656 -0.371094 6.167969 0.0546875 5.808594 0.410156 C 5.453125 0.769531 5.03125 0.945312 4.542969 0.945312 Z M 1.464844 -29.761719 L 4.542969 -29.761719 C 4.484375 -29.761719 4.453125 -29.734375 4.453125 -29.675781 L 4.453125 -32.804688 C 4.453125 -32.746094 4.484375 -32.714844 4.542969 -32.714844 L 1.464844 -32.714844 C 1.523438 -32.714844 1.550781 -32.746094 1.550781 -32.804688 L 1.550781 -29.675781 C 1.550781 -29.734375 1.523438 -29.761719 1.464844 -29.761719 Z M 1.464844 -27.871094 C 0.976562 -27.871094 0.550781 -28.050781 0.195312 -28.40625 C -0.160156 -28.761719 -0.339844 -29.1875 -0.339844 -29.675781 L -0.339844 -32.804688 C -0.339844 -33.292969 -0.160156 -33.714844 0.195312 -34.070312 C 0.550781 -34.429688 0.976562 -34.609375 1.464844 -34.609375 L 4.542969 -34.609375 C 5.03125 -34.609375 5.453125 -34.429688 5.808594 -34.070312 C 6.167969 -33.714844 6.347656 -33.292969 6.347656 -32.804688 L 6.347656 -29.675781 C 6.347656 -29.1875 6.167969 -28.761719 5.808594 -28.40625 C 5.453125 -28.050781 5.03125 -27.871094 4.542969 -27.871094 Z M 1.464844 -27.871094 "/></g></g><g style="fill:#ffffff;fill-opacity:1;"><g transform="translate(134.546947, 36.776342)"><path style="stroke:none" d="M 1.464844 -0.945312 L 4.542969 -0.945312 C 4.484375 -0.945312 4.453125 -0.917969 4.453125 -0.859375 L 4.453125 -18.371094 C 4.453125 -18.859375 4.632812 -19.28125 4.988281 -19.636719 C 5.347656 -19.996094 5.769531 -20.175781 6.257812 -20.175781 L 14.179688 -20.175781 C 14.121094 -20.175781 14.09375 -20.144531 14.09375 -20.085938 L 14.09375 -23.164062 C 14.09375 -23.105469 14.121094 -23.074219 14.179688 -23.074219 L 6.257812 -23.074219 C 6.316406 -23.074219 6.347656 -23.105469 6.347656 -23.164062 L 6.347656 -20.085938 C 6.347656 -19.597656 6.167969 -19.175781 5.808594 -18.816406 C 5.453125 -18.460938 5.03125 -18.28125 4.542969 -18.28125 L 1.464844 -18.28125 C 1.523438 -18.28125 1.550781 -18.3125 1.550781 -18.371094 L 1.550781 -0.859375 C 1.550781 -0.917969 1.523438 -0.945312 1.464844 -0.945312 Z M 1.464844 0.945312 C 0.976562 0.945312 0.550781 0.769531 0.195312 0.410156 C -0.160156 0.0546875 -0.339844 -0.371094 -0.339844 -0.859375 L -0.339844 -18.371094 C -0.339844 -18.859375 -0.160156 -19.28125 0.195312 -19.636719 C 0.550781 -19.996094 0.976562 -20.175781 1.464844 -20.175781 L 4.542969 -20.175781 C 4.484375 -20.175781 4.453125 -20.144531 4.453125 -20.085938 L 4.453125 -23.164062 C 4.453125 -23.652344 4.632812 -24.074219 4.988281 -24.433594 C 5.347656 -24.789062 5.769531 -24.96875 6.257812 -24.96875 L 14.179688 -24.96875 C 14.667969 -24.96875 15.09375 -24.789062 15.449219 -24.433594 C 15.808594 -24.074219 15.984375 -23.652344 15.984375 -23.164062 L 15.984375 -20.085938 C 15.984375 -19.597656 15.808594 -19.175781 15.449219 -18.816406 C 15.09375 -18.460938 14.667969 -18.28125 14.179688 -18.28125 L 6.257812 -18.28125 C 6.316406 -18.28125 6.347656 -18.3125 6.347656 -18.371094 L 6.347656 -0.859375 C 6.347656 -0.371094 6.167969 0.0546875 5.808594 0.410156 C 5.453125 0.769531 5.03125 0.945312 4.542969 0.945312 Z M 1.464844 0.945312 "/></g></g><g style="fill:#ffffff;fill-opacity:1;"><g transform="translate(153.217889, 36.776342)"><path style="stroke:none" d="M 6.257812 -0.945312 L 18.976562 -0.945312 C 18.917969 -0.945312 18.886719 -0.917969 18.886719 -0.859375 L 18.886719 -3.9375 C 18.886719 -3.878906 18.917969 -3.847656 18.976562 -3.847656 L 6.257812 -3.847656 C 5.769531 -3.847656 5.347656 -4.027344 4.988281 -4.382812 C 4.632812 -4.742188 4.453125 -5.164062 4.453125 -5.652344 L 4.453125 -18.371094 C 4.453125 -18.859375 4.632812 -19.28125 4.988281 -19.636719 C 5.347656 -19.996094 5.769531 -20.175781 6.257812 -20.175781 L 18.976562 -20.175781 C 18.917969 -20.175781 18.886719 -20.144531 18.886719 -20.085938 L 18.886719 -23.164062 C 18.886719 -23.105469 18.917969 -23.074219 18.976562 -23.074219 L 6.257812 -23.074219 C 6.316406 -23.074219 6.347656 -23.105469 6.347656 -23.164062 L 6.347656 -20.085938 C 6.347656 -19.597656 6.167969 -19.175781 5.808594 -18.816406 C 5.453125 -18.460938 5.03125 -18.28125 4.542969 -18.28125 L 1.464844 -18.28125 C 1.523438 -18.28125 1.550781 -18.3125 1.550781 -18.371094 L 1.550781 -5.652344 C 1.550781 -5.710938 1.523438 -5.742188 1.464844 -5.742188 L 4.542969 -5.742188 C 5.03125 -5.742188 5.453125 -5.5625 5.808594 -5.203125 C 6.167969 -4.847656 6.347656 -4.425781 6.347656 -3.9375 L 6.347656 -0.859375 C 6.347656 -0.917969 6.316406 -0.945312 6.257812 -0.945312 Z M 6.257812 0.945312 C 5.769531 0.945312 5.347656 0.769531 4.988281 0.410156 C 4.632812 0.0546875 4.453125 -0.371094 4.453125 -0.859375 L 4.453125 -3.9375 C 4.453125 -3.878906 4.484375 -3.847656 4.542969 -3.847656 L 1.464844 -3.847656 C 0.976562 -3.847656 0.550781 -4.027344 0.195312 -4.382812 C -0.160156 -4.742188 -0.339844 -5.164062 -0.339844 -5.652344 L -0.339844 -18.371094 C -0.339844 -18.859375 -0.160156 -19.28125 0.195312 -19.636719 C 0.550781 -19.996094 0.976562 -20.175781 1.464844 -20.175781 L 4.542969 -20.175781 C 4.484375 -20.175781 4.453125 -20.144531 4.453125 -20.085938 L 4.453125 -23.164062 C 4.453125 -23.652344 4.632812 -24.074219 4.988281 -24.433594 C 5.347656 -24.789062 5.769531 -24.96875 6.257812 -24.96875 L 18.976562 -24.96875 C 19.464844 -24.96875 19.886719 -24.789062 20.242188 -24.433594 C 20.601562 -24.074219 20.78125 -23.652344 20.78125 -23.164062 L 20.78125 -20.085938 C 20.78125 -19.597656 20.601562 -19.175781 20.242188 -18.816406 C 19.886719 -18.460938 19.464844 -18.28125 18.976562 -18.28125 L 6.257812 -18.28125 C 6.316406 -18.28125 6.347656 -18.3125 6.347656 -18.371094 L 6.347656 -5.652344 C 6.347656 -5.710938 6.316406 -5.742188 6.257812 -5.742188 L 18.976562 -5.742188 C 19.464844 -5.742188 19.886719 -5.5625 20.242188 -5.203125 C 20.601562 -4.847656 20.78125 -4.425781 20.78125 -3.9375 L 20.78125 -0.859375 C 20.78125 -0.371094 20.601562 0.0546875 20.242188 0.410156 C 19.886719 0.769531 19.464844 0.945312 18.976562 0.945312 Z M 6.257812 0.945312 "/></g></g><g style="fill:#ffffff;fill-opacity:1;"><g transform="translate(176.682609, 36.776342)"><path style="stroke:none" d="M 6.257812 -0.945312 L 18.976562 -0.945312 C 18.917969 -0.945312 18.886719 -0.917969 18.886719 -0.859375 L 18.886719 -23.164062 C 18.886719 -23.105469 18.917969 -23.074219 18.976562 -23.074219 L 15.898438 -23.074219 C 15.957031 -23.074219 15.984375 -23.105469 15.984375 -23.164062 L 15.984375 -5.652344 C 15.984375 -5.164062 15.808594 -4.742188 15.449219 -4.382812 C 15.09375 -4.027344 14.667969 -3.847656 14.179688 -3.847656 L 6.257812 -3.847656 C 5.769531 -3.847656 5.347656 -4.027344 4.988281 -4.382812 C 4.632812 -4.742188 4.453125 -5.164062 4.453125 -5.652344 L 4.453125 -23.164062 C 4.453125 -23.105469 4.484375 -23.074219 4.542969 -23.074219 L 1.464844 -23.074219 C 1.523438 -23.074219 1.550781 -23.105469 1.550781 -23.164062 L 1.550781 -5.652344 C 1.550781 -5.710938 1.523438 -5.742188 1.464844 -5.742188 L 4.542969 -5.742188 C 5.03125 -5.742188 5.453125 -5.5625 5.808594 -5.203125 C 6.167969 -4.847656 6.347656 -4.425781 6.347656 -3.9375 L 6.347656 -0.859375 C 6.347656 -0.917969 6.316406 -0.945312 6.257812 -0.945312 Z M 6.257812 0.945312 C 5.769531 0.945312 5.347656 0.769531 4.988281 0.410156 C 4.632812 0.0546875 4.453125 -0.371094 4.453125 -0.859375 L 4.453125 -3.9375 C 4.453125 -3.878906 4.484375 -3.847656 4.542969 -3.847656 L 1.464844 -3.847656 C 0.976562 -3.847656 0.550781 -4.027344 0.195312 -4.382812 C -0.160156 -4.742188 -0.339844 -5.164062 -0.339844 -5.652344 L -0.339844 -23.164062 C -0.339844 -23.652344 -0.160156 -24.074219 0.195312 -24.433594 C 0.550781 -24.789062 0.976562 -24.96875 1.464844 -24.96875 L 4.542969 -24.96875 C 5.03125 -24.96875 5.453125 -24.789062 5.808594 -24.433594 C 6.167969 -24.074219 6.347656 -23.652344 6.347656 -23.164062 L 6.347656 -5.652344 C 6.347656 -5.710938 6.316406 -5.742188 6.257812 -5.742188 L 14.179688 -5.742188 C 14.121094 -5.742188 14.09375 -5.710938 14.09375 -5.652344 L 14.09375 -23.164062 C 14.09375 -23.652344 14.269531 -24.074219 14.628906 -24.433594 C 14.984375 -24.789062 15.410156 -24.96875 15.898438 -24.96875 L 18.976562 -24.96875 C 19.464844 -24.96875 19.886719 -24.789062 20.242188 -24.433594 C 20.601562 -24.074219 20.78125 -23.652344 20.78125 -23.164062 L 20.78125 -0.859375 C 20.78125 -0.371094 20.601562 0.0546875 20.242188 0.410156 C 19.886719 0.769531 19.464844 0.945312 18.976562 0.945312 Z M 6.257812 0.945312 "/></g></g><g style="fill:#ffffff;fill-opacity:1;"><g transform="translate(200.147328, 36.776342)"><path style="stroke:none" d="M 1.464844 -0.945312 L 4.542969 -0.945312 C 4.484375 -0.945312 4.453125 -0.917969 4.453125 -0.859375 L 4.453125 -23.164062 C 4.453125 -23.105469 4.484375 -23.074219 4.542969 -23.074219 L 1.464844 -23.074219 C 1.523438 -23.074219 1.550781 -23.105469 1.550781 -23.164062 L 1.550781 -0.859375 C 1.550781 -0.917969 1.523438 -0.945312 1.464844 -0.945312 Z M 1.464844 0.945312 C 0.976562 0.945312 0.550781 0.769531 0.195312 0.410156 C -0.160156 0.0546875 -0.339844 -0.371094 -0.339844 -0.859375 L -0.339844 -23.164062 C -0.339844 -23.652344 -0.160156 -24.074219 0.195312 -24.433594 C 0.550781 -24.789062 0.976562 -24.96875 1.464844 -24.96875 L 4.542969 -24.96875 C 5.03125 -24.96875 5.453125 -24.789062 5.808594 -24.433594 C 6.167969 -24.074219 6.347656 -23.652344 6.347656 -23.164062 L 6.347656 -0.859375 C 6.347656 -0.371094 6.167969 0.0546875 5.808594 0.410156 C 5.453125 0.769531 5.03125 0.945312 4.542969 0.945312 Z M 1.464844 -29.761719 L 4.542969 -29.761719 C 4.484375 -29.761719 4.453125 -29.734375 4.453125 -29.675781 L 4.453125 -32.804688 C 4.453125 -32.746094 4.484375 -32.714844 4.542969 -32.714844 L 1.464844 -32.714844 C 1.523438 -32.714844 1.550781 -32.746094 1.550781 -32.804688 L 1.550781 -29.675781 C 1.550781 -29.734375 1.523438 -29.761719 1.464844 -29.761719 Z M 1.464844 -27.871094 C 0.976562 -27.871094 0.550781 -28.050781 0.195312 -28.40625 C -0.160156 -28.761719 -0.339844 -29.1875 -0.339844 -29.675781 L -0.339844 -32.804688 C -0.339844 -33.292969 -0.160156 -33.714844 0.195312 -34.070312 C 0.550781 -34.429688 0.976562 -34.609375 1.464844 -34.609375 L 4.542969 -34.609375 C 5.03125 -34.609375 5.453125 -34.429688 5.808594 -34.070312 C 6.167969 -33.714844 6.347656 -33.292969 6.347656 -32.804688 L 6.347656 -29.675781 C 6.347656 -29.1875 6.167969 -28.761719 5.808594 -28.40625 C 5.453125 -28.050781 5.03125 -27.871094 4.542969 -27.871094 Z M 1.464844 -27.871094 "/></g></g><g style="fill:#ffffff;fill-opacity:1;"><g transform="translate(209.180249, 36.776342)"><path style="stroke:none" d="M 11.050781 -0.945312 L 18.976562 -0.945312 C 18.917969 -0.945312 18.886719 -0.917969 18.886719 -0.859375 L 18.886719 -3.9375 C 18.886719 -3.878906 18.917969 -3.847656 18.976562 -3.847656 L 11.050781 -3.847656 C 10.5625 -3.847656 10.140625 -4.027344 9.785156 -4.382812 C 9.425781 -4.742188 9.246094 -5.164062 9.246094 -5.652344 L 9.246094 -18.371094 C 9.246094 -18.859375 9.425781 -19.28125 9.785156 -19.636719 C 10.140625 -19.996094 10.5625 -20.175781 11.050781 -20.175781 L 18.976562 -20.175781 C 18.917969 -20.175781 18.886719 -20.144531 18.886719 -20.085938 L 18.886719 -23.164062 C 18.886719 -23.105469 18.917969 -23.074219 18.976562 -23.074219 L 11.050781 -23.074219 C 10.5625 -23.074219 10.140625 -23.253906 9.785156 -23.613281 C 9.425781 -23.96875 9.246094 -24.390625 9.246094 -24.878906 L 9.246094 -32.804688 C 9.246094 -32.746094 9.277344 -32.714844 9.335938 -32.714844 L 6.257812 -32.714844 C 6.316406 -32.714844 6.347656 -32.746094 6.347656 -32.804688 L 6.347656 -24.878906 C 6.347656 -24.390625 6.167969 -23.96875 5.808594 -23.613281 C 5.453125 -23.253906 5.03125 -23.074219 4.542969 -23.074219 L 1.464844 -23.074219 C 1.523438 -23.074219 1.550781 -23.105469 1.550781 -23.164062 L 1.550781 -20.085938 C 1.550781 -20.144531 1.523438 -20.175781 1.464844 -20.175781 L 4.542969 -20.175781 C 5.03125 -20.175781 5.453125 -19.996094 5.808594 -19.636719 C 6.167969 -19.28125 6.347656 -18.859375 6.347656 -18.371094 L 6.347656 -5.652344 C 6.347656 -5.710938 6.316406 -5.742188 6.257812 -5.742188 L 9.335938 -5.742188 C 9.824219 -5.742188 10.246094 -5.5625 10.605469 -5.203125 C 10.960938 -4.847656 11.140625 -4.425781 11.140625 -3.9375 L 11.140625 -0.859375 C 11.140625 -0.917969 11.109375 -0.945312 11.050781 -0.945312 Z M 11.050781 0.945312 C 10.5625 0.945312 10.140625 0.769531 9.785156 0.410156 C 9.425781 0.0546875 9.246094 -0.371094 9.246094 -0.859375 L 9.246094 -3.9375 C 9.246094 -3.878906 9.277344 -3.847656 9.335938 -3.847656 L 6.257812 -3.847656 C 5.769531 -3.847656 5.347656 -4.027344 4.988281 -4.382812 C 4.632812 -4.742188 4.453125 -5.164062 4.453125 -5.652344 L 4.453125 -18.371094 C 4.453125 -18.3125 4.484375 -18.28125 4.542969 -18.28125 L 1.464844 -18.28125 C 0.976562 -18.28125 0.550781 -18.460938 0.195312 -18.816406 C -0.160156 -19.175781 -0.339844 -19.597656 -0.339844 -20.085938 L -0.339844 -23.164062 C -0.339844 -23.652344 -0.160156 -24.074219 0.195312 -24.433594 C 0.550781 -24.789062 0.976562 -24.96875 1.464844 -24.96875 L 4.542969 -24.96875 C 4.484375 -24.96875 4.453125 -24.9375 4.453125 -24.878906 L 4.453125 -32.804688 C 4.453125 -33.292969 4.632812 -33.714844 4.988281 -34.070312 C 5.347656 -34.429688 5.769531 -34.609375 6.257812 -34.609375 L 9.335938 -34.609375 C 9.824219 -34.609375 10.246094 -34.429688 10.605469 -34.070312 C 10.960938 -33.714844 11.140625 -33.292969 11.140625 -32.804688 L 11.140625 -24.878906 C 11.140625 -24.9375 11.109375 -24.96875 11.050781 -24.96875 L 18.976562 -24.96875 C 19.464844 -24.96875 19.886719 -24.789062 20.242188 -24.433594 C 20.601562 -24.074219 20.78125 -23.652344 20.78125 -23.164062 L 20.78125 -20.085938 C 20.78125 -19.597656 20.601562 -19.175781 20.242188 -18.816406 C 19.886719 -18.460938 19.464844 -18.28125 18.976562 -18.28125 L 11.050781 -18.28125 C 11.109375 -18.28125 11.140625 -18.3125 11.140625 -18.371094 L 11.140625 -5.652344 C 11.140625 -5.710938 11.109375 -5.742188 11.050781 -5.742188 L 18.976562 -5.742188 C 19.464844 -5.742188 19.886719 -5.5625 20.242188 -5.203125 C 20.601562 -4.847656 20.78125 -4.425781 20.78125 -3.9375 L 20.78125 -0.859375 C 20.78125 -0.371094 20.601562 0.0546875 20.242188 0.410156 C 19.886719 0.769531 19.464844 0.945312 18.976562 0.945312 Z M 11.050781 0.945312 "/></g></g></g></svg>