<svg xmlns="http://www.w3.org/2000/svg" xmlns:xlink="http://www.w3.org/1999/xlink" width="160" zoomAndPan="magnify" viewBox="0 0 120 30.000001" height="40" preserveAspectRatio="xMidYMid meet" version="1.2"><defs/><g id="a479b2d308"><g style="fill:#2a3b6e;fill-opacity:1;"><g transform="translate(2.80645, 19.233873)"><path style="stroke:none" d="M 13 -7.53125 L 13 -1.265625 C 13 -0.585938 12.90625 0.101562 12.71875 0.8125 C 12.539062 1.519531 12.21875 2.164062 11.75 2.75 C 11.289062 3.332031 10.640625 3.804688 9.796875 4.171875 C 8.953125 4.535156 7.878906 4.71875 6.578125 4.71875 C 5.816406 4.71875 5.101562 4.640625 4.4375 4.484375 C 3.769531 4.328125 3.1875 4.148438 2.6875 3.953125 C 2.195312 3.753906 1.832031 3.597656 1.59375 3.484375 L 2.84375 0.921875 C 2.84375 0.921875 2.976562 0.976562 3.25 1.09375 C 3.53125 1.21875 3.894531 1.335938 4.34375 1.453125 C 4.800781 1.566406 5.300781 1.625 5.84375 1.625 C 6.925781 1.625 7.703125 1.4375 8.171875 1.0625 C 8.640625 0.6875 8.875 0.144531 8.875 -0.5625 L 8.875 -1.3125 C 8.757812 -1.195312 8.5625 -1.035156 8.28125 -0.828125 C 8 -0.617188 7.632812 -0.425781 7.1875 -0.25 C 6.75 -0.0820312 6.238281 0 5.65625 0 C 4.601562 0 3.6875 -0.242188 2.90625 -0.734375 C 2.132812 -1.222656 1.535156 -1.890625 1.109375 -2.734375 C 0.679688 -3.578125 0.46875 -4.535156 0.46875 -5.609375 C 0.46875 -6.691406 0.695312 -7.648438 1.15625 -8.484375 C 1.625 -9.328125 2.242188 -9.988281 3.015625 -10.46875 C 3.796875 -10.957031 4.65625 -11.203125 5.59375 -11.203125 C 6.289062 -11.203125 6.882812 -11.109375 7.375 -10.921875 C 7.875 -10.734375 8.257812 -10.539062 8.53125 -10.34375 C 8.800781 -10.15625 8.9375 -10.0625 8.9375 -10.0625 L 9.046875 -10.953125 L 13.8125 -10.953125 L 13.8125 -7.53125 Z M 8.96875 -5.5625 C 8.96875 -6.101562 8.78125 -6.578125 8.40625 -6.984375 C 8.03125 -7.398438 7.460938 -7.609375 6.703125 -7.609375 C 6.097656 -7.609375 5.585938 -7.410156 5.171875 -7.015625 C 4.765625 -6.628906 4.5625 -6.144531 4.5625 -5.5625 C 4.5625 -4.9375 4.769531 -4.421875 5.1875 -4.015625 C 5.601562 -3.617188 6.109375 -3.421875 6.703125 -3.421875 C 7.234375 -3.421875 7.664062 -3.523438 8 -3.734375 C 8.332031 -3.953125 8.578125 -4.222656 8.734375 -4.546875 C 8.890625 -4.878906 8.96875 -5.21875 8.96875 -5.5625 Z M 8.96875 -5.5625 "/></g></g><g style="fill:#2a3b6e;fill-opacity:1;"><g transform="translate(16.083638, 19.233873)"><path style="stroke:none" d="M 7.984375 -3.4375 L 10.421875 -1.09375 C 10.003906 -0.757812 9.457031 -0.453125 8.78125 -0.171875 C 8.113281 0.109375 7.273438 0.25 6.265625 0.25 C 5.046875 0.25 4 0.00390625 3.125 -0.484375 C 2.25 -0.984375 1.582031 -1.660156 1.125 -2.515625 C 0.664062 -3.378906 0.4375 -4.363281 0.4375 -5.46875 C 0.4375 -6.5625 0.675781 -7.539062 1.15625 -8.40625 C 1.632812 -9.28125 2.3125 -9.960938 3.1875 -10.453125 C 4.0625 -10.953125 5.082031 -11.203125 6.25 -11.203125 C 7.40625 -11.203125 8.40625 -10.957031 9.25 -10.46875 C 10.09375 -9.988281 10.75 -9.3125 11.21875 -8.4375 C 11.6875 -7.570312 11.921875 -6.535156 11.921875 -5.328125 C 11.921875 -5.210938 11.90625 -5.097656 11.875 -4.984375 C 11.851562 -4.867188 11.84375 -4.8125 11.84375 -4.8125 L 4.375 -4.8125 C 4.375 -4.625 4.441406 -4.382812 4.578125 -4.09375 C 4.710938 -3.8125 4.9375 -3.5625 5.25 -3.34375 C 5.570312 -3.125 6 -3.015625 6.53125 -3.015625 C 6.851562 -3.015625 7.132812 -3.054688 7.375 -3.140625 C 7.613281 -3.234375 7.816406 -3.332031 7.984375 -3.4375 Z M 6.265625 -8.140625 C 5.816406 -8.140625 5.453125 -8.050781 5.171875 -7.875 C 4.898438 -7.695312 4.695312 -7.472656 4.5625 -7.203125 C 4.4375 -6.941406 4.375 -6.671875 4.375 -6.390625 L 7.984375 -6.390625 C 7.984375 -6.785156 7.847656 -7.175781 7.578125 -7.5625 C 7.304688 -7.945312 6.867188 -8.140625 6.265625 -8.140625 Z M 6.265625 -8.140625 "/></g></g><g style="fill:#2a3b6e;fill-opacity:1;"><g transform="translate(27.670194, 19.233873)"><path style="stroke:none" d="M 7.984375 -3.4375 L 10.421875 -1.09375 C 10.003906 -0.757812 9.457031 -0.453125 8.78125 -0.171875 C 8.113281 0.109375 7.273438 0.25 6.265625 0.25 C 5.046875 0.25 4 0.00390625 3.125 -0.484375 C 2.25 -0.984375 1.582031 -1.660156 1.125 -2.515625 C 0.664062 -3.378906 0.4375 -4.363281 0.4375 -5.46875 C 0.4375 -6.5625 0.675781 -7.539062 1.15625 -8.40625 C 1.632812 -9.28125 2.3125 -9.960938 3.1875 -10.453125 C 4.0625 -10.953125 5.082031 -11.203125 6.25 -11.203125 C 7.40625 -11.203125 8.40625 -10.957031 9.25 -10.46875 C 10.09375 -9.988281 10.75 -9.3125 11.21875 -8.4375 C 11.6875 -7.570312 11.921875 -6.535156 11.921875 -5.328125 C 11.921875 -5.210938 11.90625 -5.097656 11.875 -4.984375 C 11.851562 -4.867188 11.84375 -4.8125 11.84375 -4.8125 L 4.375 -4.8125 C 4.375 -4.625 4.441406 -4.382812 4.578125 -4.09375 C 4.710938 -3.8125 4.9375 -3.5625 5.25 -3.34375 C 5.570312 -3.125 6 -3.015625 6.53125 -3.015625 C 6.851562 -3.015625 7.132812 -3.054688 7.375 -3.140625 C 7.613281 -3.234375 7.816406 -3.332031 7.984375 -3.4375 Z M 6.265625 -8.140625 C 5.816406 -8.140625 5.453125 -8.050781 5.171875 -7.875 C 4.898438 -7.695312 4.695312 -7.472656 4.5625 -7.203125 C 4.4375 -6.941406 4.375 -6.671875 4.375 -6.390625 L 7.984375 -6.390625 C 7.984375 -6.785156 7.847656 -7.175781 7.578125 -7.5625 C 7.304688 -7.945312 6.867188 -8.140625 6.265625 -8.140625 Z M 6.265625 -8.140625 "/></g></g><g style="fill:#2a3b6e;fill-opacity:1;"><g transform="translate(39.25675, 19.233873)"><path style="stroke:none" d="M 1.015625 -12.546875 L 0.1875 -12.546875 L 0.1875 -15.96875 L 5.109375 -15.96875 L 5.109375 -8.0625 L 7.734375 -10.953125 L 12.265625 -10.953125 L 7.875 -6.140625 L 12.765625 0 L 8.015625 0 L 5.109375 -4.125 L 5.109375 0 L 1.015625 0 Z M 1.015625 -12.546875 "/></g></g><g style="fill:#7965c1;fill-opacity:1;"><g transform="translate(51.280354, 19.233873)"><path style="stroke:none" d="M 7.90625 -6.203125 C 7.75 -6.566406 7.550781 -6.878906 7.3125 -7.140625 C 7.070312 -7.398438 6.710938 -7.53125 6.234375 -7.53125 C 5.679688 -7.53125 5.242188 -7.335938 4.921875 -6.953125 C 4.597656 -6.578125 4.4375 -6.09375 4.4375 -5.5 C 4.4375 -4.914062 4.597656 -4.429688 4.921875 -4.046875 C 5.242188 -3.660156 5.679688 -3.46875 6.234375 -3.46875 C 6.640625 -3.46875 6.972656 -3.578125 7.234375 -3.796875 C 7.492188 -4.015625 7.703125 -4.296875 7.859375 -4.640625 L 11.109375 -2.375 C 10.628906 -1.613281 9.976562 -0.984375 9.15625 -0.484375 C 8.34375 0.00390625 7.367188 0.25 6.234375 0.25 C 5.054688 0.25 4.035156 -0.00390625 3.171875 -0.515625 C 2.304688 -1.023438 1.640625 -1.707031 1.171875 -2.5625 C 0.703125 -3.425781 0.46875 -4.375 0.46875 -5.40625 C 0.46875 -6.476562 0.710938 -7.445312 1.203125 -8.3125 C 1.691406 -9.1875 2.375 -9.882812 3.25 -10.40625 C 4.132812 -10.9375 5.160156 -11.203125 6.328125 -11.203125 C 7.378906 -11.203125 8.304688 -10.976562 9.109375 -10.53125 C 9.910156 -10.082031 10.578125 -9.453125 11.109375 -8.640625 L 11.109375 -6.203125 Z M 7.90625 -6.203125 "/></g></g><g style="fill:#7965c1;fill-opacity:1;"><g transform="translate(62.062837, 19.233873)"><path style="stroke:none" d="M 0.234375 -7.53125 L 0.234375 -10.953125 L 5.15625 -10.953125 L 5.15625 0 L 1.046875 0 L 1.046875 -7.53125 Z M 0.984375 -12.421875 L 0.984375 -15.96875 L 5.15625 -15.96875 L 5.15625 -12.421875 Z M 0.984375 -12.421875 "/></g></g><g style="fill:#7965c1;fill-opacity:1;"><g transform="translate(67.237397, 19.233873)"><path style="stroke:none" d="M 0.171875 -7.53125 L 0.171875 -10.953125 L 4.828125 -10.953125 L 4.953125 -8.5625 C 4.960938 -8.5625 4.988281 -8.648438 5.03125 -8.828125 C 5.070312 -9.003906 5.15625 -9.222656 5.28125 -9.484375 C 5.414062 -9.742188 5.625 -10.003906 5.90625 -10.265625 C 6.1875 -10.523438 6.578125 -10.742188 7.078125 -10.921875 C 7.585938 -11.109375 8.234375 -11.203125 9.015625 -11.203125 L 9.015625 -7.65625 C 8.835938 -7.65625 8.585938 -7.644531 8.265625 -7.625 C 7.941406 -7.601562 7.597656 -7.539062 7.234375 -7.4375 C 6.867188 -7.332031 6.519531 -7.160156 6.1875 -6.921875 C 5.851562 -6.679688 5.582031 -6.347656 5.375 -5.921875 C 5.175781 -5.492188 5.078125 -4.941406 5.078125 -4.265625 L 5.078125 0 L 0.984375 0 L 0.984375 -7.53125 Z M 0.171875 -7.53125 "/></g></g><g style="fill:#7965c1;fill-opacity:1;"><g transform="translate(75.95815, 19.233873)"><path style="stroke:none" d="M 7.90625 -6.203125 C 7.75 -6.566406 7.550781 -6.878906 7.3125 -7.140625 C 7.070312 -7.398438 6.710938 -7.53125 6.234375 -7.53125 C 5.679688 -7.53125 5.242188 -7.335938 4.921875 -6.953125 C 4.597656 -6.578125 4.4375 -6.09375 4.4375 -5.5 C 4.4375 -4.914062 4.597656 -4.429688 4.921875 -4.046875 C 5.242188 -3.660156 5.679688 -3.46875 6.234375 -3.46875 C 6.640625 -3.46875 6.972656 -3.578125 7.234375 -3.796875 C 7.492188 -4.015625 7.703125 -4.296875 7.859375 -4.640625 L 11.109375 -2.375 C 10.628906 -1.613281 9.976562 -0.984375 9.15625 -0.484375 C 8.34375 0.00390625 7.367188 0.25 6.234375 0.25 C 5.054688 0.25 4.035156 -0.00390625 3.171875 -0.515625 C 2.304688 -1.023438 1.640625 -1.707031 1.171875 -2.5625 C 0.703125 -3.425781 0.46875 -4.375 0.46875 -5.40625 C 0.46875 -6.476562 0.710938 -7.445312 1.203125 -8.3125 C 1.691406 -9.1875 2.375 -9.882812 3.25 -10.40625 C 4.132812 -10.9375 5.160156 -11.203125 6.328125 -11.203125 C 7.378906 -11.203125 8.304688 -10.976562 9.109375 -10.53125 C 9.910156 -10.082031 10.578125 -9.453125 11.109375 -8.640625 L 11.109375 -6.203125 Z M 7.90625 -6.203125 "/></g></g><g style="fill:#7965c1;fill-opacity:1;"><g transform="translate(86.740633, 19.233873)"><path style="stroke:none" d="M 0.6875 -3.109375 L 0.6875 -10.953125 L 4.890625 -10.953125 L 4.890625 -5.046875 C 4.890625 -4.503906 4.957031 -4.054688 5.09375 -3.703125 C 5.226562 -3.347656 5.515625 -3.171875 5.953125 -3.171875 C 6.296875 -3.171875 6.570312 -3.269531 6.78125 -3.46875 C 6.988281 -3.675781 7.132812 -3.921875 7.21875 -4.203125 C 7.3125 -4.492188 7.359375 -4.773438 7.359375 -5.046875 L 7.359375 -10.953125 L 11.421875 -10.953125 L 11.421875 -3.421875 L 12.25 -3.421875 L 12.25 0 L 7.484375 0 L 7.359375 -1.3125 C 7.191406 -1.125 6.953125 -0.90625 6.640625 -0.65625 C 6.335938 -0.40625 5.957031 -0.191406 5.5 -0.015625 C 5.039062 0.160156 4.488281 0.25 3.84375 0.25 C 2.75 0.25 1.945312 -0.0546875 1.4375 -0.671875 C 0.9375 -1.296875 0.6875 -2.109375 0.6875 -3.109375 Z M 0.6875 -3.109375 "/></g></g><g style="fill:#7965c1;fill-opacity:1;"><g transform="translate(98.450895, 19.233873)"><path style="stroke:none" d="M 0.234375 -7.53125 L 0.234375 -10.953125 L 5.15625 -10.953125 L 5.15625 0 L 1.046875 0 L 1.046875 -7.53125 Z M 0.984375 -12.421875 L 0.984375 -15.96875 L 5.15625 -15.96875 L 5.15625 -12.421875 Z M 0.984375 -12.421875 "/></g></g><g style="fill:#7965c1;fill-opacity:1;"><g transform="translate(103.625456, 19.233873)"><path style="stroke:none" d="M 0.46875 -7.671875 L 0.46875 -10.953125 L 1.4375 -10.953125 L 1.4375 -14.375 L 5.5625 -14.375 L 5.5625 -10.953125 L 7.59375 -10.953125 L 7.59375 -7.671875 L 5.5625 -7.671875 L 5.5625 -4.375 C 5.5625 -4.082031 5.617188 -3.847656 5.734375 -3.671875 C 5.847656 -3.503906 6.078125 -3.421875 6.421875 -3.421875 L 8.421875 -3.421875 L 8.421875 0 L 4.953125 0 C 4.242188 0 3.671875 -0.0859375 3.234375 -0.265625 C 2.796875 -0.441406 2.453125 -0.660156 2.203125 -0.921875 C 1.953125 -1.179688 1.769531 -1.441406 1.65625 -1.703125 C 1.550781 -1.972656 1.488281 -2.195312 1.46875 -2.375 C 1.445312 -2.550781 1.4375 -2.640625 1.4375 -2.640625 L 1.4375 -7.671875 Z M 0.46875 -7.671875 "/></g></g><g style="fill:#7965c1;fill-opacity:1;"><g transform="translate(111.439039, 19.233873)"><path style="stroke:none" d="M 3.671875 0.25 C 3.242188 0.25 2.847656 0.144531 2.484375 -0.0625 C 2.128906 -0.28125 1.84375 -0.566406 1.625 -0.921875 C 1.414062 -1.285156 1.3125 -1.679688 1.3125 -2.109375 C 1.3125 -2.546875 1.414062 -2.9375 1.625 -3.28125 C 1.84375 -3.632812 2.128906 -3.914062 2.484375 -4.125 C 2.847656 -4.34375 3.242188 -4.453125 3.671875 -4.453125 C 4.316406 -4.453125 4.863281 -4.222656 5.3125 -3.765625 C 5.769531 -3.304688 6 -2.753906 6 -2.109375 C 6 -1.460938 5.769531 -0.90625 5.3125 -0.4375 C 4.863281 0.0195312 4.316406 0.25 3.671875 0.25 Z M 3.671875 0.25 "/></g></g></g></svg>