<svg xmlns="http://www.w3.org/2000/svg" xmlns:xlink="http://www.w3.org/1999/xlink" width="160" zoomAndPan="magnify" viewBox="0 0 120 30.000001" height="40" preserveAspectRatio="xMidYMid meet" version="1.2"><defs/><g id="cdf027b070"><g style="fill:#2a3b6e;fill-opacity:1;"><g transform="translate(1.935482, 19.525672)"><path style="stroke:none" d="M 13.796875 -8 L 13.796875 -1.34375 C 13.796875 -0.625 13.703125 0.109375 13.515625 0.859375 C 13.328125 1.617188 12.984375 2.304688 12.484375 2.921875 C 11.984375 3.546875 11.285156 4.050781 10.390625 4.4375 C 9.503906 4.820312 8.367188 5.015625 6.984375 5.015625 C 6.179688 5.015625 5.425781 4.929688 4.71875 4.765625 C 4.007812 4.597656 3.390625 4.40625 2.859375 4.1875 C 2.335938 3.976562 1.945312 3.816406 1.6875 3.703125 L 3.015625 0.984375 C 3.015625 0.984375 3.160156 1.046875 3.453125 1.171875 C 3.753906 1.296875 4.144531 1.421875 4.625 1.546875 C 5.101562 1.671875 5.628906 1.734375 6.203125 1.734375 C 7.359375 1.734375 8.179688 1.53125 8.671875 1.125 C 9.171875 0.726562 9.421875 0.15625 9.421875 -0.59375 L 9.421875 -1.40625 C 9.304688 -1.269531 9.097656 -1.09375 8.796875 -0.875 C 8.492188 -0.65625 8.109375 -0.453125 7.640625 -0.265625 C 7.171875 -0.0859375 6.625 0 6 0 C 4.894531 0 3.925781 -0.257812 3.09375 -0.78125 C 2.269531 -1.300781 1.628906 -2.007812 1.171875 -2.90625 C 0.722656 -3.800781 0.5 -4.816406 0.5 -5.953125 C 0.5 -7.109375 0.742188 -8.128906 1.234375 -9.015625 C 1.722656 -9.910156 2.378906 -10.613281 3.203125 -11.125 C 4.035156 -11.632812 4.945312 -11.890625 5.9375 -11.890625 C 6.675781 -11.890625 7.304688 -11.789062 7.828125 -11.59375 C 8.359375 -11.394531 8.765625 -11.191406 9.046875 -10.984375 C 9.335938 -10.785156 9.484375 -10.6875 9.484375 -10.6875 L 9.609375 -11.625 L 14.671875 -11.625 L 14.671875 -8 Z M 9.53125 -5.921875 C 9.53125 -6.484375 9.328125 -6.984375 8.921875 -7.421875 C 8.523438 -7.859375 7.925781 -8.078125 7.125 -8.078125 C 6.476562 -8.078125 5.9375 -7.867188 5.5 -7.453125 C 5.0625 -7.035156 4.84375 -6.523438 4.84375 -5.921875 C 4.84375 -5.242188 5.0625 -4.691406 5.5 -4.265625 C 5.945312 -3.847656 6.488281 -3.640625 7.125 -3.640625 C 7.6875 -3.640625 8.144531 -3.75 8.5 -3.96875 C 8.851562 -4.195312 9.113281 -4.484375 9.28125 -4.828125 C 9.445312 -5.179688 9.53125 -5.546875 9.53125 -5.921875 Z M 9.53125 -5.921875 "/></g></g><g style="fill:#2a3b6e;fill-opacity:1;"><g transform="translate(16.033884, 19.525672)"><path style="stroke:none" d="M 8.484375 -3.65625 L 11.0625 -1.15625 C 10.625 -0.8125 10.046875 -0.488281 9.328125 -0.1875 C 8.617188 0.113281 7.726562 0.265625 6.65625 0.265625 C 5.351562 0.265625 4.238281 0.00390625 3.3125 -0.515625 C 2.382812 -1.046875 1.675781 -1.765625 1.1875 -2.671875 C 0.695312 -3.585938 0.453125 -4.632812 0.453125 -5.8125 C 0.453125 -6.976562 0.707031 -8.019531 1.21875 -8.9375 C 1.738281 -9.851562 2.460938 -10.570312 3.390625 -11.09375 C 4.316406 -11.625 5.398438 -11.890625 6.640625 -11.890625 C 7.867188 -11.890625 8.929688 -11.632812 9.828125 -11.125 C 10.722656 -10.613281 11.414062 -9.894531 11.90625 -8.96875 C 12.40625 -8.039062 12.65625 -6.9375 12.65625 -5.65625 C 12.65625 -5.53125 12.640625 -5.40625 12.609375 -5.28125 C 12.585938 -5.164062 12.578125 -5.109375 12.578125 -5.109375 L 4.640625 -5.109375 C 4.640625 -4.910156 4.710938 -4.660156 4.859375 -4.359375 C 5.003906 -4.054688 5.242188 -3.785156 5.578125 -3.546875 C 5.921875 -3.316406 6.375 -3.203125 6.9375 -3.203125 C 7.28125 -3.203125 7.578125 -3.25 7.828125 -3.34375 C 8.085938 -3.4375 8.304688 -3.539062 8.484375 -3.65625 Z M 6.65625 -8.65625 C 6.175781 -8.65625 5.789062 -8.554688 5.5 -8.359375 C 5.207031 -8.171875 4.988281 -7.9375 4.84375 -7.65625 C 4.707031 -7.375 4.640625 -7.085938 4.640625 -6.796875 L 8.484375 -6.796875 C 8.484375 -7.210938 8.335938 -7.625 8.046875 -8.03125 C 7.765625 -8.445312 7.300781 -8.65625 6.65625 -8.65625 Z M 6.65625 -8.65625 "/></g></g><g style="fill:#2a3b6e;fill-opacity:1;"><g transform="translate(28.337086, 19.525672)"><path style="stroke:none" d="M 8.484375 -3.65625 L 11.0625 -1.15625 C 10.625 -0.8125 10.046875 -0.488281 9.328125 -0.1875 C 8.617188 0.113281 7.726562 0.265625 6.65625 0.265625 C 5.351562 0.265625 4.238281 0.00390625 3.3125 -0.515625 C 2.382812 -1.046875 1.675781 -1.765625 1.1875 -2.671875 C 0.695312 -3.585938 0.453125 -4.632812 0.453125 -5.8125 C 0.453125 -6.976562 0.707031 -8.019531 1.21875 -8.9375 C 1.738281 -9.851562 2.460938 -10.570312 3.390625 -11.09375 C 4.316406 -11.625 5.398438 -11.890625 6.640625 -11.890625 C 7.867188 -11.890625 8.929688 -11.632812 9.828125 -11.125 C 10.722656 -10.613281 11.414062 -9.894531 11.90625 -8.96875 C 12.40625 -8.039062 12.65625 -6.9375 12.65625 -5.65625 C 12.65625 -5.53125 12.640625 -5.40625 12.609375 -5.28125 C 12.585938 -5.164062 12.578125 -5.109375 12.578125 -5.109375 L 4.640625 -5.109375 C 4.640625 -4.910156 4.710938 -4.660156 4.859375 -4.359375 C 5.003906 -4.054688 5.242188 -3.785156 5.578125 -3.546875 C 5.921875 -3.316406 6.375 -3.203125 6.9375 -3.203125 C 7.28125 -3.203125 7.578125 -3.25 7.828125 -3.34375 C 8.085938 -3.4375 8.304688 -3.539062 8.484375 -3.65625 Z M 6.65625 -8.65625 C 6.175781 -8.65625 5.789062 -8.554688 5.5 -8.359375 C 5.207031 -8.171875 4.988281 -7.9375 4.84375 -7.65625 C 4.707031 -7.375 4.640625 -7.085938 4.640625 -6.796875 L 8.484375 -6.796875 C 8.484375 -7.210938 8.335938 -7.625 8.046875 -8.03125 C 7.765625 -8.445312 7.300781 -8.65625 6.65625 -8.65625 Z M 6.65625 -8.65625 "/></g></g><g style="fill:#2a3b6e;fill-opacity:1;"><g transform="translate(40.640287, 19.525672)"><path style="stroke:none" d="M 1.078125 -13.3125 L 0.203125 -13.3125 L 0.203125 -16.953125 L 5.4375 -16.953125 L 5.4375 -8.5625 L 8.21875 -11.625 L 13.03125 -11.625 L 8.375 -6.53125 L 13.5625 0 L 8.515625 0 L 5.4375 -4.375 L 5.4375 0 L 1.078125 0 Z M 1.078125 -13.3125 "/></g></g><g style="fill:#7965c1;fill-opacity:1;"><g transform="translate(52.453276, 19.525672)"><path style="stroke:none" d="M 8.390625 -6.59375 C 8.234375 -6.96875 8.023438 -7.296875 7.765625 -7.578125 C 7.503906 -7.859375 7.117188 -8 6.609375 -8 C 6.023438 -8 5.5625 -7.796875 5.21875 -7.390625 C 4.875 -6.992188 4.703125 -6.476562 4.703125 -5.84375 C 4.703125 -5.21875 4.875 -4.703125 5.21875 -4.296875 C 5.5625 -3.890625 6.023438 -3.6875 6.609375 -3.6875 C 7.046875 -3.6875 7.40625 -3.800781 7.6875 -4.03125 C 7.96875 -4.257812 8.1875 -4.554688 8.34375 -4.921875 L 11.8125 -2.515625 C 11.300781 -1.710938 10.609375 -1.046875 9.734375 -0.515625 C 8.867188 0.00390625 7.828125 0.265625 6.609375 0.265625 C 5.367188 0.265625 4.289062 -0.00390625 3.375 -0.546875 C 2.457031 -1.085938 1.75 -1.8125 1.25 -2.71875 C 0.75 -3.632812 0.5 -4.640625 0.5 -5.734375 C 0.5 -6.878906 0.757812 -7.914062 1.28125 -8.84375 C 1.800781 -9.769531 2.523438 -10.507812 3.453125 -11.0625 C 4.390625 -11.613281 5.476562 -11.890625 6.71875 -11.890625 C 7.832031 -11.890625 8.816406 -11.648438 9.671875 -11.171875 C 10.523438 -10.703125 11.238281 -10.035156 11.8125 -9.171875 L 11.8125 -6.59375 Z M 8.390625 -6.59375 "/></g></g><g style="fill:#7965c1;fill-opacity:1;"><g transform="translate(63.902671, 19.525672)"><path style="stroke:none" d="M 0.234375 -8 L 0.234375 -11.625 L 5.46875 -11.625 L 5.46875 0 L 1.125 0 L 1.125 -8 Z M 1.046875 -13.1875 L 1.046875 -16.953125 L 5.46875 -16.953125 L 5.46875 -13.1875 Z M 1.046875 -13.1875 "/></g></g><g style="fill:#7965c1;fill-opacity:1;"><g transform="translate(69.397286, 19.525672)"><path style="stroke:none" d="M 0.171875 -8 L 0.171875 -11.625 L 5.125 -11.625 L 5.25 -9.09375 C 5.269531 -9.09375 5.300781 -9.1875 5.34375 -9.375 C 5.382812 -9.5625 5.472656 -9.796875 5.609375 -10.078125 C 5.753906 -10.359375 5.972656 -10.632812 6.265625 -10.90625 C 6.566406 -11.1875 6.984375 -11.421875 7.515625 -11.609375 C 8.054688 -11.796875 8.742188 -11.890625 9.578125 -11.890625 L 9.578125 -8.125 C 9.378906 -8.125 9.109375 -8.113281 8.765625 -8.09375 C 8.429688 -8.070312 8.066406 -8.003906 7.671875 -7.890625 C 7.285156 -7.785156 6.914062 -7.601562 6.5625 -7.34375 C 6.21875 -7.09375 5.9375 -6.738281 5.71875 -6.28125 C 5.5 -5.832031 5.390625 -5.25 5.390625 -4.53125 L 5.390625 0 L 1.046875 0 L 1.046875 -8 Z M 0.171875 -8 "/></g></g><g style="fill:#7965c1;fill-opacity:1;"><g transform="translate(78.65743, 19.525672)"><path style="stroke:none" d="M 8.390625 -6.59375 C 8.234375 -6.96875 8.023438 -7.296875 7.765625 -7.578125 C 7.503906 -7.859375 7.117188 -8 6.609375 -8 C 6.023438 -8 5.5625 -7.796875 5.21875 -7.390625 C 4.875 -6.992188 4.703125 -6.476562 4.703125 -5.84375 C 4.703125 -5.21875 4.875 -4.703125 5.21875 -4.296875 C 5.5625 -3.890625 6.023438 -3.6875 6.609375 -3.6875 C 7.046875 -3.6875 7.40625 -3.800781 7.6875 -4.03125 C 7.96875 -4.257812 8.1875 -4.554688 8.34375 -4.921875 L 11.8125 -2.515625 C 11.300781 -1.710938 10.609375 -1.046875 9.734375 -0.515625 C 8.867188 0.00390625 7.828125 0.265625 6.609375 0.265625 C 5.367188 0.265625 4.289062 -0.00390625 3.375 -0.546875 C 2.457031 -1.085938 1.75 -1.8125 1.25 -2.71875 C 0.75 -3.632812 0.5 -4.640625 0.5 -5.734375 C 0.5 -6.878906 0.757812 -7.914062 1.28125 -8.84375 C 1.800781 -9.769531 2.523438 -10.507812 3.453125 -11.0625 C 4.390625 -11.613281 5.476562 -11.890625 6.71875 -11.890625 C 7.832031 -11.890625 8.816406 -11.648438 9.671875 -11.171875 C 10.523438 -10.703125 11.238281 -10.035156 11.8125 -9.171875 L 11.8125 -6.59375 Z M 8.390625 -6.59375 "/></g></g><g style="fill:#7965c1;fill-opacity:1;"><g transform="translate(90.106825, 19.525672)"><path style="stroke:none" d="M 0.71875 -3.3125 L 0.71875 -11.625 L 5.1875 -11.625 L 5.1875 -5.359375 C 5.1875 -4.773438 5.257812 -4.296875 5.40625 -3.921875 C 5.550781 -3.554688 5.859375 -3.375 6.328125 -3.375 C 6.691406 -3.375 6.984375 -3.476562 7.203125 -3.6875 C 7.421875 -3.90625 7.578125 -4.164062 7.671875 -4.46875 C 7.773438 -4.769531 7.828125 -5.066406 7.828125 -5.359375 L 7.828125 -11.625 L 12.140625 -11.625 L 12.140625 -3.640625 L 13.015625 -3.640625 L 13.015625 0 L 7.953125 0 L 7.828125 -1.40625 C 7.648438 -1.195312 7.394531 -0.960938 7.0625 -0.703125 C 6.738281 -0.441406 6.332031 -0.210938 5.84375 -0.015625 C 5.351562 0.171875 4.765625 0.265625 4.078125 0.265625 C 2.921875 0.265625 2.070312 -0.0625 1.53125 -0.71875 C 0.988281 -1.375 0.71875 -2.238281 0.71875 -3.3125 Z M 0.71875 -3.3125 "/></g></g><g style="fill:#7965c1;fill-opacity:1;"><g transform="translate(102.541385, 19.525672)"><path style="stroke:none" d="M 0.234375 -8 L 0.234375 -11.625 L 5.46875 -11.625 L 5.46875 0 L 1.125 0 L 1.125 -8 Z M 1.046875 -13.1875 L 1.046875 -16.953125 L 5.46875 -16.953125 L 5.46875 -13.1875 Z M 1.046875 -13.1875 "/></g></g><g style="fill:#7965c1;fill-opacity:1;"><g transform="translate(108.036, 19.525672)"><path style="stroke:none" d="M 0.5 -8.15625 L 0.5 -11.625 L 1.53125 -11.625 L 1.53125 -15.265625 L 5.921875 -15.265625 L 5.921875 -11.625 L 8.0625 -11.625 L 8.0625 -8.15625 L 5.921875 -8.15625 L 5.921875 -4.640625 C 5.921875 -4.335938 5.976562 -4.09375 6.09375 -3.90625 C 6.207031 -3.726562 6.445312 -3.640625 6.8125 -3.640625 L 8.9375 -3.640625 L 8.9375 0 L 5.25 0 C 4.507812 0 3.90625 -0.09375 3.4375 -0.28125 C 2.96875 -0.46875 2.601562 -0.703125 2.34375 -0.984375 C 2.082031 -1.265625 1.890625 -1.539062 1.765625 -1.8125 C 1.648438 -2.09375 1.582031 -2.328125 1.5625 -2.515625 C 1.539062 -2.703125 1.53125 -2.796875 1.53125 -2.796875 L 1.53125 -8.15625 Z M 0.5 -8.15625 "/></g></g></g></svg>