<svg xmlns="http://www.w3.org/2000/svg" xmlns:xlink="http://www.w3.org/1999/xlink" width="512" zoomAndPan="magnify" viewBox="0 0 384 383.999986" height="512" preserveAspectRatio="xMidYMid meet" version="1.2"><defs><clipPath id="0bfcc7eaeb"><path d="M 192 0 C 85.960938 0 0 85.960938 0 192 C 0 298.039062 85.960938 384 192 384 C 298.039062 384 384 298.039062 384 192 C 384 85.960938 298.039062 0 192 0 Z M 192 0 "/></clipPath></defs><g id="a1ca21a3b8"><g clip-rule="nonzero" clip-path="url(#0bfcc7eaeb)"><rect x="0" width="384" y="0" height="383.999986" style="fill:#ffffff;fill-opacity:1;stroke:none;"/></g><g style="fill:#151122;fill-opacity:1;"><g transform="translate(119.247816, 261.482756)"><path style="stroke:none" d="M 11.300781 74.027344 L 109.484375 74.027344 C 112.988281 74.027344 116.105469 70.910156 116.105469 67.402344 L 116.105469 43.636719 C 116.105469 40.128906 119.222656 37.011719 122.730469 37.011719 L 146.496094 37.011719 C 150.003906 37.011719 153.121094 33.898438 153.121094 30.390625 L 153.121094 -178.835938 C 153.121094 -182.339844 150.003906 -185.457031 146.496094 -185.457031 L 48.3125 -185.457031 C 44.804688 -185.457031 41.6875 -182.339844 41.6875 -178.835938 L 41.6875 -155.066406 C 41.6875 -151.5625 38.570312 -148.445312 35.066406 -148.445312 L 11.300781 -148.445312 C 7.792969 -148.445312 4.675781 -145.328125 4.675781 -141.820312 L 4.675781 -43.636719 C 4.675781 -40.128906 7.792969 -37.011719 11.300781 -37.011719 L 35.066406 -37.011719 C 38.570312 -37.011719 41.6875 -33.898438 41.6875 -30.390625 L 41.6875 -6.625 C 41.6875 -3.117188 44.804688 0 48.3125 0 L 109.484375 0 C 112.988281 0 116.105469 3.117188 116.105469 6.625 L 116.105469 30.390625 C 116.105469 33.898438 112.988281 37.011719 109.484375 37.011719 L 11.300781 37.011719 C 7.792969 37.011719 4.675781 40.128906 4.675781 43.636719 L 4.675781 67.402344 C 4.675781 70.910156 7.792969 74.027344 11.300781 74.027344 Z M 41.6875 -43.636719 L 41.6875 -141.820312 C 41.6875 -145.328125 44.804688 -148.445312 48.3125 -148.445312 L 109.484375 -148.445312 C 112.988281 -148.445312 116.105469 -145.328125 116.105469 -141.820312 L 116.105469 -43.636719 C 116.105469 -40.128906 112.988281 -37.011719 109.484375 -37.011719 L 48.3125 -37.011719 C 44.804688 -37.011719 41.6875 -40.128906 41.6875 -43.636719 Z M 41.6875 -43.636719 "/></g></g><g style="fill:#7965c1;fill-opacity:1;"><g transform="translate(102.028761, 244.263701)"><path style="stroke:none" d="M 11.300781 66.722656 L 109.484375 66.722656 C 109.027344 66.722656 108.800781 66.949219 108.800781 67.402344 L 108.800781 43.636719 C 108.800781 39.867188 110.179688 36.601562 112.9375 33.84375 C 115.695312 31.085938 118.957031 29.707031 122.730469 29.707031 L 146.496094 29.707031 C 146.042969 29.707031 145.8125 29.933594 145.8125 30.390625 L 145.8125 -178.835938 C 145.8125 -178.378906 146.042969 -178.152344 146.496094 -178.152344 L 48.3125 -178.152344 C 48.765625 -178.152344 48.996094 -178.378906 48.996094 -178.835938 L 48.996094 -155.066406 C 48.996094 -151.296875 47.617188 -148.03125 44.859375 -145.273438 C 42.101562 -142.519531 38.835938 -141.140625 35.066406 -141.140625 L 11.300781 -141.140625 C 11.753906 -141.140625 11.980469 -141.367188 11.980469 -141.820312 L 11.980469 -43.636719 C 11.980469 -44.089844 11.753906 -44.320312 11.300781 -44.320312 L 35.066406 -44.320312 C 38.835938 -44.320312 42.101562 -42.941406 44.859375 -40.183594 C 47.617188 -37.425781 48.996094 -34.160156 48.996094 -30.390625 L 48.996094 -6.625 C 48.996094 -7.078125 48.765625 -7.304688 48.3125 -7.304688 L 109.484375 -7.304688 C 113.253906 -7.304688 116.515625 -5.925781 119.273438 -3.167969 C 122.03125 -0.410156 123.410156 2.851562 123.410156 6.625 L 123.410156 30.390625 C 123.410156 34.160156 122.03125 37.425781 119.273438 40.183594 C 116.515625 42.941406 113.253906 44.320312 109.484375 44.320312 L 11.300781 44.320312 C 11.753906 44.320312 11.980469 44.089844 11.980469 43.636719 L 11.980469 67.402344 C 11.980469 66.949219 11.753906 66.722656 11.300781 66.722656 Z M 11.300781 81.332031 C 7.527344 81.332031 4.265625 79.953125 1.507812 77.195312 C -1.25 74.4375 -2.628906 71.175781 -2.628906 67.402344 L -2.628906 43.636719 C -2.628906 39.867188 -1.25 36.601562 1.507812 33.84375 C 4.265625 31.085938 7.527344 29.707031 11.300781 29.707031 L 109.484375 29.707031 C 109.027344 29.707031 108.800781 29.933594 108.800781 30.390625 L 108.800781 6.625 C 108.800781 7.078125 109.027344 7.304688 109.484375 7.304688 L 48.3125 7.304688 C 44.542969 7.304688 41.277344 5.925781 38.519531 3.167969 C 35.761719 0.410156 34.382812 -2.851562 34.382812 -6.625 L 34.382812 -30.390625 C 34.382812 -29.933594 34.609375 -29.707031 35.066406 -29.707031 L 11.300781 -29.707031 C 7.527344 -29.707031 4.265625 -31.085938 1.507812 -33.84375 C -1.25 -36.601562 -2.628906 -39.867188 -2.628906 -43.636719 L -2.628906 -141.820312 C -2.628906 -145.589844 -1.25 -148.855469 1.507812 -151.613281 C 4.265625 -154.371094 7.527344 -155.75 11.300781 -155.75 L 35.066406 -155.75 C 34.609375 -155.75 34.382812 -155.523438 34.382812 -155.066406 L 34.382812 -178.835938 C 34.382812 -182.605469 35.761719 -185.871094 38.519531 -188.625 C 41.277344 -191.382812 44.542969 -192.761719 48.3125 -192.761719 L 146.496094 -192.761719 C 150.265625 -192.761719 153.53125 -191.382812 156.289062 -188.625 C 159.046875 -185.871094 160.425781 -182.605469 160.425781 -178.835938 L 160.425781 30.390625 C 160.425781 34.160156 159.046875 37.425781 156.289062 40.183594 C 153.53125 42.941406 150.265625 44.320312 146.496094 44.320312 L 122.730469 44.320312 C 123.183594 44.320312 123.410156 44.089844 123.410156 43.636719 L 123.410156 67.402344 C 123.410156 71.175781 122.03125 74.4375 119.273438 77.195312 C 116.515625 79.953125 113.253906 81.332031 109.484375 81.332031 Z M 34.382812 -43.636719 L 34.382812 -141.820312 C 34.382812 -145.589844 35.761719 -148.855469 38.519531 -151.613281 C 41.277344 -154.371094 44.542969 -155.75 48.3125 -155.75 L 109.484375 -155.75 C 113.253906 -155.75 116.515625 -154.371094 119.273438 -151.613281 C 122.03125 -148.855469 123.410156 -145.589844 123.410156 -141.820312 L 123.410156 -43.636719 C 123.410156 -39.867188 122.03125 -36.601562 119.273438 -33.84375 C 116.515625 -31.085938 113.253906 -29.707031 109.484375 -29.707031 L 48.3125 -29.707031 C 44.542969 -29.707031 41.277344 -31.085938 38.519531 -33.84375 C 35.761719 -36.601562 34.382812 -39.867188 34.382812 -43.636719 Z M 48.996094 -43.636719 C 48.996094 -44.089844 48.765625 -44.320312 48.3125 -44.320312 L 109.484375 -44.320312 C 109.027344 -44.320312 108.800781 -44.089844 108.800781 -43.636719 L 108.800781 -141.820312 C 108.800781 -141.367188 109.027344 -141.140625 109.484375 -141.140625 L 48.3125 -141.140625 C 48.765625 -141.140625 48.996094 -141.367188 48.996094 -141.820312 Z M 48.996094 -43.636719 "/></g></g><g style="fill:#151122;fill-opacity:1;"><g transform="translate(277.052491, 261.482756)"><path style="stroke:none" d=""/></g></g><g style="fill:#7965c1;fill-opacity:1;"><g transform="translate(259.833436, 244.263701)"><path style="stroke:none" d=""/></g></g></g></svg>